<svg width="48" height="48" viewBox="0 0 48 48" fill="none" xmlns="http://www.w3.org/2000/svg">
<path d="M12.388 45.8065C12.2631 46.0378 12.1362 46.2951 11.93 46.4647C11.4013 46.8997 10.7413 46.3643 10.8599 45.7549C10.9131 45.4818 11.1267 45.2108 11.2448 44.9569C11.4377 44.5424 11.5876 44.0971 11.6892 43.6517L10.0801 43.3236C9.90718 43.9459 9.49524 44.6101 9.08162 45.101C8.6386 45.6267 7.82565 45.3912 7.82227 44.697C7.82077 44.3847 8.10722 44.0714 8.27068 43.818C9.10997 42.5169 8.87508 40.9444 8.91526 39.4772C8.96724 37.5777 9.15244 35.187 9.68091 33.3988C10.9103 29.2391 14.265 26.5325 17.1986 23.5775L23.0069 17.625L24.9441 15.8442C25.3841 15.4621 25.8638 15.0928 26.2738 14.6802C25.7292 14.4858 25.1054 14.4573 24.5382 14.3268C22.9898 13.9706 21.4273 13.3758 20.1324 12.4428C16.9839 10.1745 16.8027 6.38141 19.5498 3.59249C19.9913 3.14423 20.4872 2.78174 20.9723 2.3855C21.3056 2.11336 21.6028 1.78791 21.9659 1.554C22.8776 0.966739 24.0041 0.827173 25.0612 0.740366L26.7279 0.652344L28.1921 0.656319C28.853 0.662736 29.3753 0.724953 30.023 0.773483L30.8222 0.872328C33.765 1.25438 37.7936 2.67106 38.8792 5.75427L39.1756 6.67307L39.3008 7.36429C39.6582 9.35671 38.643 11.0608 37.4788 12.5598C36.36 14.0004 35.0777 15.3172 33.7674 16.5831L27.8092 22.1678L23.7728 25.7599L20.5924 29.0004C18.0781 31.7507 16.9719 33.3011 16.774 37.0668L16.6934 39.3442C16.6029 41.8568 16.3992 44.0033 15.3289 46.3212C15.2102 46.5783 15.1198 46.8815 14.8744 47.0465C14.3278 47.4144 13.6649 46.8004 13.7926 46.3683L13.8028 46.3363C14.0252 45.5979 14.4658 44.8896 14.7075 44.0503L13.1291 43.8348C12.9389 44.5356 12.7015 45.1521 12.388 45.8065ZM26.3326 2.06617L24.5786 2.21579C23.9423 2.29188 23.2721 2.40336 22.7197 2.75195C21.6275 3.4411 21.1278 5.18526 22.0819 6.1814C23.9595 5.47925 25.3976 5.09732 27.4565 4.99424L28.5399 4.98608C30.5861 4.98547 32.8014 5.1914 34.4716 6.49827C34.6127 6.60866 34.7341 6.72154 34.8069 6.88954L34.8224 6.92193C34.9083 7.10638 34.9126 7.34544 34.8429 7.53786L34.8102 7.61914C34.6412 8.0354 34.3543 8.40983 34.0992 8.77771C32.5616 10.9956 30.4354 12.6812 28.4911 14.5187C27.679 15.2862 27.6439 14.8978 27.4309 16.0261C27.3156 16.6371 27.3002 17.0893 27.2155 17.6668C27.1799 18.6085 27.2071 19.6207 27.388 20.5501C27.8164 20.2022 28.2097 19.8008 28.6182 19.4289L30.9807 17.2642C32.4065 15.9248 33.8503 14.6107 35.1508 13.1454C36.613 11.4979 38.1919 9.60805 37.878 7.2545C37.4251 3.86066 33.2059 2.54097 30.3171 2.21889L28.9332 2.07972L26.3326 2.06617ZM20.1694 4.95913C19.2034 6.24097 18.593 8.0083 19.342 9.53507C20.6478 12.1966 24.9775 13.301 27.6607 13.3167C27.7371 13.2638 27.8124 13.2139 27.8778 13.1473L28.6097 12.4729L30.2442 10.9853C30.3533 10.8803 30.5581 10.7245 30.623 10.5913L28.5847 10.4648C26.3236 10.2335 24.1013 9.78327 22.2543 8.35354C21.1775 7.51996 20.2143 6.39055 20.1694 4.95913ZM28.3061 6.38235C26.5613 6.45186 24.8122 6.66111 23.1585 7.24246C24.2243 8.20143 25.6911 8.59677 27.0669 8.84802L28.5021 9.05389L31.9215 9.24482L33.3233 7.36377C31.582 6.49011 30.2709 6.37311 28.3061 6.38235ZM25.8084 16.9867C25.55 17.173 25.3309 17.404 25.1007 17.6227L23.5887 19.1078C23.5282 19.1707 23.456 19.2306 23.4185 19.3096L23.4258 19.3516C23.5794 20.2911 23.5306 21.5255 23.4351 22.4697L23.1568 24.3661L23.4234 24.153L26.2456 21.6502C25.824 20.4498 25.7319 19.042 25.761 17.7764L25.8084 16.9867ZM21.9381 20.7131C21.5722 21.0609 21.2483 21.461 20.9163 21.8362L18.4033 24.4714C17.8404 25.0275 17.8747 24.9555 17.6218 25.7113C17.1811 27.0282 16.4855 30.1775 16.7737 31.5776C17.1043 30.9872 17.5211 30.4464 17.9368 29.9172L20.6377 26.8586C20.9315 26.5605 21.1421 26.3978 21.2396 25.9851L21.3506 25.5333C21.7549 23.8808 21.9288 22.4124 21.9381 20.7131ZM15.7334 26.9816C15.3628 27.3101 15.0514 27.6985 14.7106 28.0563C12.7784 30.0847 10.9496 32.6603 10.6626 35.5338L11.5487 35.6409L15.478 36.133C15.5234 36.0628 15.7342 34.2796 15.6763 34.0161C15.2937 32.2746 15.1781 30.6625 15.402 28.8884L15.7334 26.9816ZM10.4954 36.9496C10.3978 37.1691 10.3291 38.7483 10.3183 39.2066L10.2737 41.9883L15.0113 42.7114C15.0293 42.6782 15.0347 42.6705 15.0344 42.6314C15.1708 41.997 15.1801 41.3479 15.22 40.7037L15.377 37.5096L10.4954 36.9496Z" fill="black"/>
</svg>
