<svg width="48" height="48" viewBox="0 0 48 48" fill="none" xmlns="http://www.w3.org/2000/svg">
<path d="M24.6034 46.106C23.2386 46.1622 21.8824 46.0312 20.5218 45.9433L19.2153 45.8458C18.6291 45.8116 18.0468 45.7655 17.4609 45.7283L16.8331 45.6706C15.1795 45.5735 14.4766 44.9254 13.9295 43.3211L13.3548 41.7694C13.2499 41.4798 12.9091 41.4326 12.6163 41.2639C11.9415 40.875 12.0767 40.5222 11.8792 41.6721C11.5722 43.4587 10.2203 44.5285 8.41965 44.6815L8.37883 44.6848C7.6149 44.75 6.75878 44.7026 6.05851 44.3631C5.18542 43.9397 4.89044 43.3012 4.88903 42.4064L4.88575 25.6407C4.88514 24.3944 4.92522 23.788 5.4324 22.5896L7.22683 18.4796L8.70564 13.6492C8.93861 12.7459 9.11856 11.8463 9.61037 11.0365C10.5598 9.47301 12.271 8.7713 13.9371 8.25431L16.0255 7.68009C17.3097 7.38014 17.5419 6.35391 18.0347 5.2853C19.2021 2.75438 21.0592 1.864 23.8381 1.72172C24.1556 1.69961 24.5056 1.74405 24.8202 1.78239C27.428 2.10015 28.9075 2.93869 29.998 5.33217L30.385 6.30319C30.8267 7.3634 31.4803 7.58123 32.5202 7.82278L34.8239 8.48878C36.5937 9.05911 37.9793 9.7433 38.7293 11.6367L38.9066 12.0822C39.2028 12.8305 39.3003 13.6423 39.5768 14.3944L40.3274 16.8371L41.2479 19.2892C41.4371 19.7786 41.6748 20.2543 41.8924 20.7318L42.6637 22.4949C42.834 22.8985 43.0261 23.3267 43.1122 23.7585L43.339 24.6915C43.4247 25.0285 43.4921 25.408 43.5054 25.7558L43.5139 41.2501C43.5598 43.0372 42.5293 44.5346 40.6683 44.7846C38.8258 45.032 36.6241 43.9616 36.2187 42.0207C36.1388 41.6378 36.1253 41.2449 36.041 40.8634C35.6448 41.1104 35.2386 41.4503 34.7698 41.5415C34.7242 41.5504 34.7264 41.5981 34.712 41.6404L34.234 42.9093C33.4119 45.0581 33.2031 45.4983 30.703 45.6559L25.3055 46.0974C25.0735 46.113 24.8361 46.1055 24.6034 46.106ZM23.6515 3.17225C22.6157 3.22045 20.801 3.62733 20.1581 4.55313C20.2397 6.01153 21.3403 7.25119 22.6629 7.79569C23.0995 7.97545 23.5536 8.09972 23.9756 8.31483L24.2261 8.20092C25.6463 7.69687 26.8795 7.13072 27.574 5.67117C27.7106 5.38411 27.919 4.83319 27.8162 4.52258C27.6293 3.9578 25.881 3.40566 25.3593 3.30364C24.781 3.19055 24.2415 3.16538 23.6515 3.17225ZM19.1495 6.23573C18.8565 7.24078 18.1533 8.25848 17.2265 8.76731C16.6132 9.10406 15.8885 9.21234 15.2147 9.37992C14.7234 9.50208 14.2367 9.67898 13.7577 9.84328C10.5999 10.9265 10.6843 11.7935 9.8432 14.8595L8.59759 18.8519C8.22911 19.9082 7.75881 20.9215 7.29883 21.9398C6.84269 22.9497 6.31633 23.9317 6.28965 25.0647L6.28661 34.6892C6.2867 35.4291 6.2379 42.6634 6.31628 42.8506L6.35519 42.9259C6.4653 43.1404 6.68748 43.2504 6.91033 43.3174L6.9843 43.338C8.185 43.6776 10.0611 43.1393 10.395 41.7885L10.6598 40.485L12.0518 34.9799C12.9697 31.2572 13.861 28.1852 13.8574 24.3283L13.8203 22.9923C13.8117 22.7878 13.8195 22.5873 13.796 22.383L13.4874 20.3193L13.3154 19.55C13.2445 19.2636 13.1166 18.9552 13.1217 18.6596C13.1323 18.0522 14.011 17.6509 14.4415 18.4689L14.4629 18.507C14.7989 19.1208 15.0374 21.0102 15.1376 21.7396C15.2035 22.2187 15.2466 22.7181 15.2493 23.2012L15.2509 24.3101C15.2508 25.0795 15.2567 25.8239 15.1954 26.5894L14.4878 31.0666L12.7509 38.0509C12.6379 38.4809 12.554 38.9359 12.4107 39.3556C13.2888 40.283 14.5251 40.5292 15.7281 40.7181L18.9343 41.0882C19.5457 41.1412 20.1422 41.2687 20.7624 41.2853L23.2972 41.287C23.3485 40.8994 23.3017 40.4688 23.299 40.0763L23.2977 11.7325C23.2976 11.0052 23.3379 10.2517 23.2904 9.52692C23.1766 9.47367 23.0536 9.46041 22.9346 9.42234L22.1693 9.14034C20.8697 8.58965 19.7049 7.55273 19.1495 6.23573ZM28.8339 6.26967L28.8188 6.31453C28.4159 7.45762 27.0881 8.56228 26.0379 9.03909L24.9268 9.45605C24.8559 9.47836 24.7605 9.48778 24.704 9.5362L24.7022 41.2952C25.1496 41.2966 25.6089 41.3049 26.0551 41.2743L30.2524 40.9104C32.128 40.7304 34.2101 40.7478 35.6464 39.326L34.9731 37.0112L33.2166 29.8361L32.7978 26.8361C32.7902 26.7417 32.7927 26.6399 32.7652 26.549C32.5878 25.9613 32.715 22.7408 32.8491 21.7384C32.9604 20.9059 33.0957 20.0872 33.2931 19.2699C33.4236 18.7295 33.5972 17.8079 34.3827 18.0268C35.2904 18.2796 34.587 19.8311 34.4864 20.5335C33.9753 23.1783 34.0075 25.9361 34.4241 28.5929L35.6085 33.9503C35.6865 34.2605 35.7458 34.5844 35.8464 34.8881L37.5295 40.9811C37.6142 41.2869 37.5675 41.6289 37.6536 41.9481C37.9276 42.9636 39.3039 43.4571 40.2421 43.3644L40.6404 43.3157C41.3327 43.2024 42.0356 42.513 42.1065 41.7973C42.1359 41.5008 42.1137 41.1855 42.114 40.8863L42.1132 26.6019C42.1117 24.4609 41.3989 23.1008 40.5481 21.1941L39.0644 17.505L38.178 14.6609C37.5081 12.235 37.4154 10.9453 34.9359 10.0503L32.81 9.39426C30.9948 8.92369 29.8438 8.76764 29.0352 6.70326C29.0087 6.63558 28.884 6.27642 28.8339 6.26967ZM14.9545 42.062L15.4529 43.3862C15.5796 43.7234 15.8821 44.0225 16.2092 44.1658L16.3965 44.2364C16.573 44.2954 16.8068 44.2665 16.9921 44.2817L21.4499 44.6284C22.0604 44.6668 22.6688 44.625 23.2801 44.6823L23.2941 43.3548C23.2935 43.1417 23.311 42.9064 23.2791 42.6967C22.0295 42.6688 20.7834 42.7132 19.5351 42.6273L14.9545 42.062ZM32.9814 42.0822L24.6916 42.7071L24.6954 43.8732C24.6934 44.1315 24.6574 44.4259 24.6908 44.6801L24.7382 44.6965L30.9728 44.1916C31.6415 44.1269 32.1842 44.1674 32.5195 43.442L32.9814 42.0822Z" fill="black"/>
<path d="M15.8816 35.2659C15.0149 35.4246 14.6404 34.1414 15.8999 33.7959C17.0456 33.4817 18.0003 32.414 18.2014 31.2437C18.2714 30.8366 18.2498 30.404 18.2504 29.9916L18.251 28.2188C18.2515 27.6859 18.1851 27.1392 18.8337 26.9818C19.541 26.9358 19.6649 27.3756 19.6661 27.9206L19.6674 28.7078C19.668 29.4596 19.7052 30.2358 19.6603 30.985C19.5385 33.0145 17.9288 34.958 15.8816 35.2659Z" fill="black"/>
<path d="M32.3092 35.2974C32.0888 35.306 31.8453 35.2217 31.6393 35.1487C29.5902 34.4218 28.34 32.7466 28.3361 30.5848L28.3369 28.3164C28.3381 27.7615 28.2769 27.1464 28.9674 26.9808C29.215 26.9659 29.4705 27.0206 29.6132 27.2438L29.6298 27.2702C29.8435 27.5942 29.7627 27.9556 29.7628 28.3255L29.758 30.0546C29.7533 30.7215 29.7027 31.389 30.022 32.0009L30.0897 32.1335C30.4374 32.8414 31.0778 33.384 31.7963 33.6858C32.2416 33.8728 32.6032 33.843 32.8294 34.3483L32.8642 34.4304C33.0092 34.8672 32.7082 35.182 32.3092 35.2974Z" fill="black"/>
</svg>
