<svg width="48" height="48" viewBox="0 0 48 48" fill="none" xmlns="http://www.w3.org/2000/svg">
<path d="M24.5731 45.4507L17.118 45.4532C16.8567 45.4535 16.5403 45.4865 16.2874 45.4313C14.2296 44.9825 14.3006 43.0428 14.2997 41.3344L14.2963 27.3176L13.4199 30.4678C13.2617 31.009 13.154 31.6133 12.9077 32.1212C12.5736 32.8099 11.494 32.4239 11.685 31.6884L14.8001 21.4103C14.877 21.1574 14.9341 20.7589 15.1052 20.5539C15.4805 20.1043 16.19 20.4103 16.2096 20.965C16.2247 21.39 16.0884 21.841 16.0394 22.2628L15.8102 24.7913C15.7886 25.0664 15.7415 25.3403 15.7301 25.6158L15.7302 41.7243C16.4236 40.8817 16.724 39.8361 17.1035 38.8343L18.7825 34.0046C18.8414 33.8434 18.893 33.6675 18.9724 33.5153C19.1937 33.0907 19.8365 33.0897 20.0667 33.5027L20.08 33.5275C20.342 33.9925 19.9122 34.7046 19.7879 35.1852C19.5919 35.9434 19.2934 36.6812 19.0303 37.4181L18.1463 39.9025C17.616 41.39 17.1618 42.4909 15.7499 43.3153C15.9921 44.1926 16.4256 44.1325 17.1455 44.132L23.2951 44.1301C23.3366 43.866 23.3011 43.5549 23.2995 43.2856L23.2972 19.0518C23.2972 18.404 23.3326 17.7346 23.2937 17.0891L22.2492 16.8836C20.3758 16.3182 17.8843 14.5271 16.9625 12.8113L16.2888 12.9679C13.1325 13.6647 12.2861 14.8531 11.341 17.6486L8.44489 26.514C8.16603 27.4018 7.81831 28.2811 7.61 29.189C7.25572 30.733 7.41861 31.2231 7.63395 32.6676L8.11006 35.8361C8.19964 36.3547 8.23742 36.8912 8.34406 37.4064L9.07512 41.8131C9.17272 42.2898 9.54973 42.1999 9.91489 42.194L11.1833 42.1889C11.429 42.189 11.7527 42.1223 11.9675 42.2675L12.0647 42.3314C12.1844 42.4128 12.2653 42.5353 12.2885 42.679L12.2927 42.7077C12.4096 43.4568 11.6305 43.4675 11.1282 43.4678L10.1202 43.4677C9.82976 43.4678 9.46859 43.5171 9.1872 43.457C7.65903 43.1303 7.71758 41.7768 7.51306 40.5702L6.18851 32.1798C6.02586 31.1458 6.07484 29.8366 6.33495 28.8053L10.0716 17.2198C10.2987 16.5546 10.5096 15.902 10.8252 15.2705C11.9025 13.1143 14.0928 11.8669 16.426 11.5487C16.6758 11.5147 16.5956 11.5252 16.6009 11.2568L17.129 6.25433C17.242 5.43725 17.3895 4.84442 17.9809 4.22017C19.3835 2.73951 21.5719 2.52024 23.4939 2.46582C25.9095 2.39857 29.6683 2.61216 30.7491 5.26185C30.8911 5.60994 30.9048 5.99052 30.9363 6.3598L31.326 10.061C31.3379 10.2189 31.3653 10.3727 31.3716 10.5323L31.4019 11.5449C33.6685 11.9142 35.8573 12.9628 37.0488 15.02C37.4637 15.7364 37.7065 16.5453 37.9527 17.3295L38.6246 19.3712C38.7542 19.7685 38.8624 20.1924 39.0141 20.5792L39.3558 21.6095C39.4074 21.7996 39.4941 21.9815 39.5442 22.172L41.1554 27.129C41.7032 28.9846 42.0475 29.2438 41.7322 31.3325L40.4116 41.212C40.3648 41.7564 40.3614 42.2669 40.0026 42.7155L39.9776 42.7462C39.4476 43.4181 38.8824 43.4695 38.0977 43.4719L36.3434 43.4735C35.1357 43.4721 35.3537 42.331 35.976 42.124C36.1465 42.0673 36.4119 42.0979 36.5944 42.0979L38.0419 42.102C39.2092 42.1058 38.9979 42.0975 39.1584 40.8986L40.484 30.7618C40.6567 29.4218 40.2243 28.5433 39.8015 27.2983L36.8112 18.0905C36.6171 17.4766 36.4245 16.8489 36.1765 16.2547C35.2635 14.0677 33.0054 13.0927 30.7797 12.8154L30.7456 12.8638C29.5519 14.4815 26.7946 16.725 24.7152 17.032C24.6844 17.2091 24.715 17.4228 24.7192 17.6032L24.7179 43.6953C24.716 43.8375 24.6907 44.0135 24.7215 44.1493C25.3528 44.1072 25.9942 44.129 26.6272 44.1289L31.0083 44.132C31.1987 44.1322 31.5182 44.1682 31.6888 44.0754L31.7106 44.0627C31.8885 43.9633 32.0539 43.8136 32.1484 43.6306L32.1637 43.6001C32.2232 43.4848 32.2528 43.3737 32.2837 43.2487C30.861 42.3835 30.6894 41.9478 30.0731 40.3604L28.0793 34.8183C27.9862 34.5566 27.8622 34.2967 27.7944 34.0276C27.6544 33.4726 28.5314 32.5758 29.0623 33.6915C29.3302 34.2544 29.5076 34.8683 29.7311 35.4493L31.0998 39.3165C31.2279 39.7237 31.782 41.1989 32.0971 41.482C32.1655 41.5435 32.2192 41.5979 32.271 41.675L32.2986 22.8217C32.2991 22.4314 32.2 21.1084 32.3666 20.815L32.3831 20.7875C32.6643 20.2978 33.3843 20.2326 33.5753 20.8388L33.5881 20.8829C33.6527 21.0871 33.6258 21.3479 33.6507 21.5626L33.8022 22.4897C33.8445 22.7265 33.8769 22.9841 33.9513 23.2128L36.3902 30.9508C36.4238 31.0549 36.4405 31.1883 36.4852 31.2845L36.507 31.3313C36.8412 32.1723 35.6439 32.6488 35.2611 31.7585C35.1327 31.4598 35.0584 31.1377 34.9591 30.8289L33.9646 27.7307C33.8837 27.4723 33.7907 27.217 33.7283 26.9534C33.7297 27.119 33.7055 27.2814 33.7055 27.4454L33.7213 42.4473C33.7188 43.7713 33.2876 45.0057 31.8872 45.4048L31.8594 45.4125C31.6097 45.4853 31.2846 45.4506 31.0252 45.4507H24.5731ZM23.1171 3.82293C21.7097 3.88755 19.3984 4.17139 18.631 5.55481L18.6128 5.58627C18.4217 5.92349 18.4612 6.44966 18.4158 6.82616L17.997 10.1501C17.9714 10.3944 17.877 11.5048 17.9275 11.6744C18.4448 13.4108 21.5681 15.5658 23.2954 15.7147L23.2948 12.7621C22.0473 12.6423 20.2348 11.7859 19.4289 10.8165C18.0194 9.1212 20.0345 7.23481 21.8327 7.16558C22.1789 7.15222 22.5365 7.19122 22.8853 7.19281L24.8083 7.19544L25.9414 7.19497C27.1859 7.1976 28.3759 7.55047 28.8909 8.84099C29.8315 11.1982 26.5214 12.5976 24.7112 12.7607L24.6997 15.6867C26.3215 15.2608 28.2462 13.7313 29.3378 12.4878C29.6046 12.1839 29.7992 11.8447 30.0504 11.5336L29.9902 9.96528L29.6494 6.91419C29.5492 6.0988 29.6471 5.62456 28.9927 5.02574C27.6012 3.75247 24.9147 3.79732 23.1171 3.82293ZM21.8094 8.56489C21.3126 8.62845 20.7653 8.81019 20.4475 9.22513C20.0323 9.76705 20.644 10.1625 21.0661 10.451C22.5485 11.4641 24.147 11.7733 25.8739 11.1081L26.1287 11.0186C26.6627 10.8357 27.4047 10.4122 27.6478 9.87903C27.9302 9.25995 27.056 8.61308 26.5263 8.56925C25.9967 8.52542 25.4358 8.56789 24.902 8.56817L21.8094 8.56489Z" fill="black"/>
</svg>
