<svg width="48" height="48" viewBox="0 0 48 48" fill="none" xmlns="http://www.w3.org/2000/svg">
<path d="M28.4416 39.843L17.7417 39.8431C17.2986 39.843 16.8218 39.8752 16.383 39.8111C14.1024 39.4777 12.6791 37.6139 12.6749 35.3946L12.6755 34.3034L8.63495 33.5493C8.17365 33.4673 7.7732 33.3483 7.82598 32.754C7.86639 32.2995 7.9524 31.832 8.03429 31.3829L8.33617 29.5079C8.44717 28.8046 8.48804 28.0257 8.56604 27.3183L10.0114 15.5998C10.1785 13.8444 10.742 12.3838 12.34 11.393C13.4648 10.6957 14.7788 10.7295 16.0524 10.7332C16.1309 10.6535 16.1665 10.4599 16.2223 10.3546C16.9041 9.06896 18.1346 8.27541 19.6037 8.18958L27.7854 8.17786C28.1228 8.17777 28.5515 8.12686 28.8729 8.21457L28.9987 8.24621C30.223 8.46521 31.4071 9.3645 31.8845 10.5287C31.9857 10.7756 31.9648 10.7339 32.2246 10.7339C34.5867 10.7339 37.0623 11.6097 37.8429 14.092C38.0512 14.7543 38.0691 15.462 38.1393 16.1485L39.1403 24.3985C39.166 24.5771 39.1667 24.7596 39.1904 24.9375L40.0744 32.1223C40.1035 32.3724 40.1997 32.9445 40.0781 33.1562L40.0584 33.1875C39.9878 33.3017 39.8864 33.4062 39.7664 33.4693L39.7441 33.4805C39.4142 33.6506 38.9797 33.63 38.6201 33.693L35.176 34.2635C35.2061 35.3197 35.3867 36.5071 34.9228 37.4985C34.4258 38.5609 33.5881 39.1948 32.4734 39.5654L31.9502 39.7149C31.6986 39.774 31.4725 39.8281 31.2111 39.8385L28.4416 39.843ZM24.8099 9.72483L19.79 9.72563C18.1432 9.72741 17.1999 10.9915 17.2074 12.592L17.2171 12.7501C17.3665 14.6213 18.7954 15.4064 20.5488 15.573C20.6367 15.5814 20.7858 15.6139 20.8669 15.5933L20.1978 14.4794C20.0393 14.2057 19.8697 13.9253 19.7582 13.629L19.7442 13.5936C19.4585 12.8477 20.0393 12.4713 20.7044 12.4547L23.2619 12.4457L27.0847 12.4448C27.2955 12.4448 27.5372 12.4176 27.7385 12.4841L27.7667 12.4928C27.9343 12.5472 28.1102 12.6883 28.1876 12.8483L28.2381 12.9653C28.6772 13.9996 27.3168 15.0254 27.1615 15.6265C28.3149 15.4665 29.4603 15.2929 30.2148 14.3004C31.3625 12.7906 30.7725 10.0695 28.7957 9.74002C28.6066 9.70847 28.3922 9.72572 28.2006 9.72525L25.566 9.72385C25.3179 9.72366 25.0566 9.70641 24.8099 9.72483ZM32.2759 12.1758C32.2018 13.1765 32.2742 13.5839 31.7498 14.5904C30.5634 16.8675 28.373 17.0608 26.062 17.2275C25.961 17.2348 25.3365 17.2219 25.3014 17.2439C25.2967 17.2468 24.9641 18.1353 24.9368 18.2344L24.7905 18.8482C24.7079 19.1756 24.7261 19.4617 24.7259 19.8006L24.7295 38.3791L30.6392 38.363C30.8491 38.3626 31.0569 38.3678 31.2604 38.3086C32.5849 37.9235 33.748 37.6048 33.747 36.0271L33.7401 33.6337C33.7298 33.4185 33.6899 33.2107 33.6873 32.9933L33.6838 31.3159C33.6834 31.0462 33.6955 30.7699 33.6778 30.501L33.1397 28.5271C32.5805 26.4568 32.3193 25.4313 32.3225 23.3171L32.3366 21.2214C32.3484 21.0055 32.3913 20.7946 32.4107 20.5801L32.4562 19.7074C32.5027 19.066 32.8959 18.5595 33.574 18.9333C33.928 19.1285 33.8424 19.5345 33.8423 19.8679C33.8421 20.5365 33.8898 21.2623 33.772 21.9197C33.5365 23.2342 33.8454 25.7593 34.2587 27.0298L34.3217 27.2864C34.3288 27.3244 34.3398 27.3559 34.3518 27.3923L34.6313 28.5317C35.5214 28.4077 36.4093 28.1833 37.2927 28.0137C37.5505 27.9642 37.8002 27.8832 38.0637 27.8626L36.5899 15.5235C36.4541 14.1646 35.9399 13.2838 34.6315 12.6625C34.3042 12.5071 32.6564 12.0861 32.2759 12.1758ZM15.4118 12.1978C11.7835 12.3239 11.5957 14.1928 11.3112 17.2802L9.97909 27.9969L14.024 28.9667C14.3957 27.033 14.5052 25.9747 14.3729 23.9369L14.1453 21.1388C14.0964 20.6174 14.0165 20.054 14.0379 19.5308C14.0692 18.7674 15.4397 18.3692 15.5243 19.7414C15.5438 20.0587 15.5378 20.3836 15.5755 20.6992L15.8513 24.1758L15.8693 25.8871C15.8582 27.5254 15.6359 29.016 15.0594 30.5693L14.9929 30.7449L14.3713 32.513C14.2159 33.0245 14.1529 33.4395 14.152 33.9682L14.1515 34.9612C14.1519 35.6348 14.1237 36.1211 14.4259 36.7433C15.0902 38.1111 16.1713 38.3627 17.518 38.3637L23.2632 38.3659L23.2554 19.5731C23.2554 19.0759 23.1714 18.5534 23.0575 18.0677C23.0167 17.8934 22.9143 17.7416 22.8759 17.57C22.8542 17.4735 22.8664 17.326 22.8245 17.2418C22.273 17.2373 21.9436 17.1971 21.4248 17.1559C19.0111 16.9641 16.6567 16.4486 15.8994 13.8584C15.7396 13.3121 15.7678 12.8386 15.7679 12.2721C15.7679 12.1542 15.6476 12.197 15.5393 12.1943L15.4118 12.1978ZM21.5725 13.9449C21.9036 14.4387 22.328 14.9566 22.7956 15.3344L23.3205 15.7528C23.649 16.0056 23.8066 16.2534 24.0345 16.6012L24.0467 16.576C24.2193 16.2242 24.4229 15.9788 24.7291 15.7423L25.294 15.2936C25.7727 14.9034 26.1565 14.4516 26.5308 13.9645C26.4046 13.9219 26.2095 13.9448 26.0742 13.9448L21.5725 13.9449ZM38.2336 29.3555L35.1366 29.9694L35.135 32.7596L35.4195 32.7198L38.5844 32.1746L38.2336 29.3555ZM9.81315 29.4972L9.40342 32.1804C9.73712 32.2762 10.0993 32.3184 10.4416 32.3806L12.4638 32.7515C12.5742 32.7733 12.6866 32.8155 12.7995 32.8184L12.8481 32.5493C12.9421 32.1837 13.0339 31.8193 13.158 31.4624L13.4478 30.6733C13.48 30.5871 13.5549 30.4448 13.5483 30.3591L9.81315 29.4972Z" fill="black"/>
</svg>
