<svg width="48" height="48" viewBox="0 0 48 48" fill="none" xmlns="http://www.w3.org/2000/svg">
<path d="M42.4788 40.5425C40.9294 42.3937 38.8746 43.1864 36.5294 43.3223L34.687 43.3378C32.561 43.3389 31.2271 43.0743 29.1348 42.6067L12.0185 39.0933C11.7096 39.0388 11.1548 39.11 10.8921 38.9493C10.6917 38.8267 10.394 38.7648 10.1663 38.7021L9.42314 38.4744C7.14628 37.7324 5.22942 35.9506 4.39293 33.6977C3.98145 32.5895 3.95671 31.936 3.95717 30.778L4.04749 27.6635L4.36277 25.2538C4.43192 24.7698 4.39613 24.2467 4.39672 23.758L4.39173 14.1589C4.38215 13.9383 4.11007 13.5869 4.02077 13.2513L3.99251 13.1538C3.94724 13.0256 3.9386 12.8941 3.93321 12.759L3.92467 7.09654C3.92478 6.93323 3.91372 6.75637 3.96854 6.60009L4.09891 6.30375C4.37955 5.77846 4.87828 5.47973 5.46234 5.44767C6.25603 5.40154 6.52045 6.123 7.1393 5.81132C9.01111 4.86862 9.14859 6.10387 9.89859 5.87446L9.93727 5.86218C10.6827 5.6384 10.916 5.12681 11.8868 5.60742C12.5907 5.95589 12.5702 5.97806 13.2452 5.62007C13.811 5.31998 14.3223 5.41007 14.8568 5.69165C15.9208 6.25223 16.2039 4.9439 17.5062 5.62861C17.7575 5.7607 17.9647 5.97084 18.2574 5.88946C19.1776 5.63357 19.3082 5.02786 20.5866 5.75536C21.4905 6.26976 21.8694 5.18306 22.8621 5.49028L23.0623 5.55356C23.4818 5.71275 23.8347 6.06473 23.9825 6.49078L24.0314 6.60075C24.1069 6.76795 24.0847 7.01311 24.0866 7.19503L24.0984 12.9647C24.0782 13.4368 23.7218 13.8062 23.749 14.2564L23.79 20.1038C23.7902 20.4166 23.7857 20.7172 23.8506 21.0252L23.8905 21.228C24.1431 22.734 25.3859 24.1727 26.6518 24.9281C27.633 25.5137 28.8135 25.7619 29.8943 26.1062L38.3703 28.7982C40.4342 29.4776 41.9519 30.3431 43.0906 32.3373C43.5284 33.1041 43.8188 33.9 43.9686 34.7693L44.0535 35.3508C44.2305 37.1843 43.6507 39.1267 42.4788 40.5425ZM5.61488 7.30059L5.60386 12.1203C5.60353 12.3566 5.58417 12.6094 5.62955 12.8421C6.1012 12.6909 6.59372 12.5052 7.09359 12.6267L7.23502 12.6506L7.19911 7.59182C6.27422 7.71717 5.92397 7.29717 5.61488 7.30059ZM22.3782 7.34746C21.6088 7.66303 21.0346 7.72345 20.2772 7.54195C20.2476 7.95806 20.2634 8.38007 20.2631 8.7974L20.2611 12.0755C20.261 12.434 20.1248 12.7525 20.4724 12.6745L20.6738 12.6186C21.2482 12.45 21.8604 12.7024 22.3967 12.8822C22.4464 12.6367 22.4273 12.373 22.4277 12.123L22.4195 7.34746C22.3853 7.34606 22.3991 7.34503 22.3782 7.34746ZM8.88314 7.48809L8.88849 12.7816C9.36844 12.65 9.68156 12.5657 10.1834 12.6527L10.2637 7.58976L10.2207 7.60214C9.80681 7.71346 9.3015 7.6215 8.90531 7.48382L8.88314 7.48809ZM11.9318 7.48186L11.9413 12.7122C12.1577 12.5984 12.6074 12.5873 12.8318 12.6337L12.9255 12.6525L13.0093 12.6678C13.0468 12.3742 13.0306 12.0672 13.031 11.7712V8.61853C13.0306 8.27756 13.0458 7.92782 13.0163 7.58826L12.9836 7.59398C12.6078 7.65576 12.287 7.60082 11.9318 7.48186ZM17.2565 7.46062L17.2451 12.094C17.2461 12.9268 17.1175 12.7492 17.8294 12.6479C18.0802 12.6122 18.3361 12.6327 18.5868 12.6581L18.6093 7.56389C18.1224 7.6342 17.7203 7.64512 17.2565 7.46062ZM14.7007 7.53496L14.6987 12.1677C14.6988 12.356 14.6827 12.5616 14.7072 12.7477L14.7259 12.7394C14.9695 12.6376 15.2428 12.6168 15.5037 12.6243L15.5925 12.6398L15.5811 7.59145C15.3668 7.59304 14.8088 7.5261 14.7007 7.53496ZM6.85964 14.3033C6.5302 14.3594 6.32269 14.5065 6.04974 14.6899L6.0443 24.0067C9.72614 24.6847 12.6961 27.001 13.6772 30.7447C14.2006 32.7418 13.7932 34.7995 13.014 36.6735L12.6862 37.4651L29.4699 40.9267C31.4789 41.4054 32.6744 41.632 34.7014 41.6302C37.14 41.6279 39.3583 41.4964 41.0698 39.5869C43.1102 37.1213 42.7552 33.6428 40.2811 31.6086C39.235 30.7484 37.8604 30.4277 36.598 30.0239L27.8929 27.2689C27.4568 27.1315 27.0084 27.006 26.5903 26.8198C24.3091 25.8042 22.6626 23.7561 22.2081 21.3077C22.0737 20.5836 22.1253 19.8739 22.125 19.14V14.896C22.1252 14.3511 21.1009 14.2479 20.6868 14.3505C20.2763 14.4523 19.8784 15.2028 19.1007 14.7692C18.6746 14.5317 18.5134 14.2051 17.9234 14.3475C17.6698 14.4088 17.5132 14.6138 17.2995 14.7408C16.3705 15.2928 16.0637 14.1098 15.2013 14.3458C14.9634 14.4108 14.8072 14.616 14.6015 14.7357C13.7214 15.2477 13.2806 14.0857 12.4256 14.3468C11.7441 14.5551 11.5597 15.3751 10.4798 14.5387C10.2157 14.334 9.87881 14.2469 9.55055 14.3477C8.97094 14.5257 8.61431 15.3818 7.65445 14.5616C7.43667 14.3755 7.14248 14.2938 6.85964 14.3033ZM6.01439 25.7527C5.9003 26.3192 5.84011 26.9033 5.77842 27.4778L5.60419 30.5887C5.60339 31.0542 5.60109 31.482 5.67661 31.9406C6.13688 34.7352 8.32313 36.5055 10.9353 37.1597L11.2269 36.5022C11.6548 35.565 12.0531 34.5725 12.1906 33.5442C12.5967 30.51 10.6363 27.5775 7.91555 26.3422C7.30509 26.0651 6.666 25.8989 6.01439 25.7527Z" fill="black"/>
</svg>
