<svg width="48" height="48" viewBox="0 0 48 48" fill="none" xmlns="http://www.w3.org/2000/svg">
<path d="M31.5297 42.4683L29.0981 42.4594C28.9106 42.4504 28.7296 42.4117 28.5436 42.3935L25.7114 41.9763C24.1759 41.6343 23.9618 41.5792 22.3357 41.9586L21.3659 42.1462C19.9762 42.3758 18.5575 42.4701 17.1508 42.4708C15.7654 42.4715 14.2831 42.286 13.9141 40.6301C13.8135 40.1786 13.885 39.7033 13.8046 39.2549C13.728 39.1748 13.6403 39.153 13.5508 39.0948C12.2521 38.2522 12.3514 37.2093 12.1555 35.894L11.7633 33.8823C11.5667 34.4465 11.4467 35.0415 11.288 35.6176L10.8168 37.0773C10.5296 37.9211 10.0655 38.7053 9.80985 39.5538L9.08864 42.5037C8.75929 43.6903 8.44035 43.4657 7.41778 43.2955C6.59179 43.1582 4.39691 42.9475 4.19626 41.9629L4.1896 41.9292C4.15646 41.7756 4.1631 41.599 4.17997 41.443L4.34252 39.509C4.45213 38.6449 4.42337 38.7092 4.31763 37.9214C4.22083 37.2002 4.30457 36.4151 4.39016 35.6948L4.8697 32.2993L5.37201 26.6767L6.55996 18.0815L7.64728 12.1636L8.01637 10.9333C8.19571 10.3372 8.32696 9.69676 8.63685 9.15297C9.50179 7.63497 11.1472 6.36526 12.8758 6.02926C13.2754 5.95159 13.6792 5.94667 14.0811 5.8967C15.6169 5.70559 16.6237 4.88865 17.9562 4.52658L18.9667 4.51837C20.8062 4.52297 21.0696 5.59469 22.7121 5.89769C23.9142 6.1195 25.3719 6.08008 26.4581 5.49705C27.2015 5.098 27.3223 4.85336 28.2008 4.58118C28.5033 4.48749 29.8958 4.46055 30.1866 4.57793C31.0822 4.93951 31.9499 5.44581 32.8846 5.69336C33.4507 5.84331 34.0228 5.86998 34.5992 5.94334C36.4589 6.17983 38.1298 7.25036 39.1513 8.82578C39.8987 9.97839 40.3931 12.2479 40.683 13.6984L41.5319 18.7378L42.5981 26.3695L43.5662 33.9631C43.6997 34.8651 43.9058 37.1105 43.6607 38.0034C43.3484 39.1405 44.1596 41.541 43.7391 42.2465L43.7167 42.2822C43.2266 43.0175 40.8505 43.2758 39.9965 43.4403C39.0765 43.6174 38.9353 42.4862 38.7663 41.8482C38.5194 40.9162 38.3661 39.9867 38.0285 39.0763C37.8731 38.6572 37.6471 38.2854 37.4596 37.8831C36.795 36.4572 36.642 34.8354 36.4005 33.3005L35.8723 36.439C35.6826 37.8194 35.2669 38.5015 34.2029 39.304L34.1361 40.1572C33.9932 41.6969 33.0265 42.3796 31.5297 42.4683ZM19.0785 5.98778L18.9883 6.00348C18.9419 6.7803 20.5362 7.88336 21.1084 8.24669C21.9312 8.76916 23.7546 9.19262 24.7458 8.96237L24.8136 8.94531C25.0802 8.87898 25.36 8.86178 25.6293 8.7865C26.6518 8.50089 27.6817 7.85284 28.4151 7.07575C28.7147 6.74369 28.8922 6.42887 28.9289 5.97644C28.7827 5.97175 28.6452 5.96762 28.5004 5.99247L28.4733 5.99669C28.2576 6.03601 27.9659 6.30658 27.7849 6.43136C26.4125 7.37734 24.7639 7.59855 23.135 7.46964C22.1106 7.38859 21.1271 7.03886 20.2629 6.49225C19.8872 6.25459 19.5562 5.94109 19.0785 5.98778ZM17.4895 6.3159L16.5356 6.74908C15.8225 7.05686 14.9556 7.32728 14.1769 7.41264C13.8463 7.44887 13.5026 7.4463 13.1763 7.51122C12.052 7.73486 10.4896 8.68642 10.0014 9.79572L9.97996 9.85117C10.2919 10.1956 10.6525 10.4952 10.9627 10.8465C13.1936 13.3721 13.9739 17.0357 13.5812 20.3323L13.3922 21.5117L12.8465 27.6909C12.701 28.8982 12.6103 30.6514 12.8873 31.8586L13.5292 35.1213C13.7466 35.9435 13.4768 37.0006 14.135 37.6506C15.0611 38.5653 16.2549 38.4454 17.4224 38.3711L18.6684 38.274C20.0897 38.1785 20.6985 38.0843 21.9848 37.5926C23.1631 37.1421 24.6945 37.0799 25.8815 37.5385C26.9612 37.9556 27.2812 38.0672 28.4654 38.1954L30.7387 38.3726C31.7533 38.4348 32.1002 38.5256 33.1631 38.1255C34.4044 37.4923 34.3035 36.6178 34.5257 35.4136L35.1568 31.4761C35.1882 31.1353 35.2472 30.8008 35.2618 30.4598L35.2746 29.6465C35.2759 29.0921 35.2961 28.5267 35.265 27.9737L34.4579 20.4543C34.3621 19.7772 34.3304 19.1438 34.3306 18.4621C34.3314 15.5734 35.3602 12.4643 37.4683 10.4241C37.6574 10.2412 37.8915 10.0891 38.0674 9.89767C37.4887 8.82137 36.4118 7.97575 35.247 7.61917C34.6948 7.45009 34.1356 7.46589 33.5746 7.36712C32.8201 7.23428 32.0869 7.05484 31.3776 6.76103L30.4187 6.32167C30.0041 8.3958 27.5169 9.92031 25.5678 10.3364C24.5018 10.564 23.2881 10.5351 22.2297 10.2924C20.4867 9.8927 18.1513 8.33364 17.5724 6.55197C17.5493 6.48076 17.5388 6.36611 17.4895 6.3159ZM9.41821 11.3537C9.26976 11.7568 9.16335 12.1771 9.05681 12.5929L8.53326 15.0229L7.36457 22.664L6.65362 28.3551L6.32596 32.451L5.85853 35.7417C5.79351 36.2039 5.62345 37.3978 5.79773 37.8256C6.36946 38.3143 7.70081 38.4047 8.41992 38.2355C8.55388 38.1901 8.68237 38.1498 8.7996 38.068C9.81417 35.861 10.6841 32.5708 11.0618 30.105L11.5265 26.3281L11.9429 21.3219C12.0269 20.6863 12.1552 20.0539 12.2027 19.4135C12.4337 16.3033 11.5028 13.6137 9.41821 11.3537ZM38.5857 11.4018L38.5583 11.435C38.4377 11.5798 38.2928 11.7069 38.1678 11.849C36.3595 13.9047 35.5706 16.8041 35.8035 19.5116L36.7785 27.9904C36.8872 28.5413 36.9566 29.1203 37.1643 29.647C37.2347 29.8258 37.2832 30.0736 37.3224 30.2624L37.532 31.1532C37.6186 31.4589 37.6422 31.7952 37.6996 32.1084L38.1206 34.9203C38.1427 35.0667 38.1513 35.2111 38.1943 35.3533L38.3698 36.0815C38.4344 36.2766 38.4887 36.4767 38.5678 36.6661L39.013 37.7012C39.0731 37.8271 39.1252 37.9514 39.2049 38.0671L39.2197 38.089C39.2877 38.179 39.5166 38.1994 39.6249 38.2419C40.0286 38.3224 40.3384 38.3172 40.7505 38.2797C42.1394 38.1531 42.2997 37.9028 42.3005 36.6296C42.3013 35.4348 42.0945 34.2843 41.9418 33.1047L41.153 26.4992L39.6884 16.3574C39.4771 15.0169 39.2321 13.6626 38.8765 12.3518L38.6904 11.6764C38.6722 11.6162 38.6454 11.4294 38.5857 11.4018ZM23.8485 38.7281C22.7535 38.8217 22.3418 39.1393 21.3669 39.3937C19.9562 39.7618 16.7931 40.0613 15.2951 39.801C15.3151 40.0564 15.3051 40.3476 15.4413 40.5698L15.4534 40.5914C15.5523 40.7607 15.8075 40.8722 15.9793 40.9402L16.0083 40.9525C16.2207 41.0374 16.5957 40.9935 16.824 40.9937L18.0485 40.9869L20.6914 40.7259C21.8864 40.5467 22.9439 40.1918 24.1627 40.193C25.065 40.2416 25.8457 40.5235 26.7249 40.6783L29.1418 40.9742L30.7933 40.9982C31.1912 40.9999 31.6608 41.05 32.0353 40.9097L32.0732 40.8961C32.6444 40.6866 32.6378 40.3486 32.6654 39.8199C31.9139 39.9936 31.1916 39.8853 30.4335 39.8413C29.007 39.7586 27.4343 39.7256 26.0797 39.214C25.3064 38.9219 24.7168 38.6761 23.8485 38.7281ZM5.81217 39.5268L5.63399 41.388C6.29779 41.6341 7.04845 41.7686 7.75293 41.8271L7.8021 41.5956L8.21831 39.7682C7.50989 39.819 6.82148 39.8177 6.13574 39.6183C6.05329 39.5943 5.88895 39.5108 5.81217 39.5268ZM42.1103 39.5972L40.9949 39.769C40.6159 39.8344 40.1699 39.8372 39.791 39.7714L40.2238 41.653L40.3052 41.848C41.0044 41.7835 41.7496 41.6714 42.3939 41.3855C42.3687 41.0301 42.2762 39.9298 42.185 39.591L42.1103 39.5972Z" fill="black"/>
</svg>
