<svg width="48" height="48" viewBox="0 0 48 48" fill="none" xmlns="http://www.w3.org/2000/svg">
<path d="M25.1532 35.5367L24.0368 27.692C23.9089 27.978 23.8914 28.4694 23.8496 28.779L23.5942 30.7018L22.2229 39.3986C22.1008 40.1474 22.0516 41.0926 21.6774 41.7716C21.1045 42.8109 19.0485 42.8119 17.9437 42.7246C17.8176 42.7147 17.695 42.6805 17.5689 42.6679L14.4938 42.2747C13.2536 42.0493 11.1713 41.6587 10.4317 40.5353C9.94533 39.7968 10.1641 39.0639 10.295 38.2736L11.5155 30.2814L12.4027 23.883C12.4184 23.7716 12.4499 23.663 12.4642 23.5513L13.4685 14.4216L13.9575 10.6795C14.0125 10.1255 14.0014 8.92855 14.249 8.46111C14.4004 8.17545 14.3631 7.96935 14.3637 7.64736L14.3648 6.41806C14.3653 5.78834 14.5074 5.36717 15.214 5.25678L32.3738 5.25842C32.5653 5.25917 32.8538 5.22683 33.0312 5.30014L33.0708 5.31856C33.2486 5.39563 33.3723 5.50156 33.4734 5.66783L33.5834 5.87127C33.6686 6.12022 33.6243 6.48561 33.6247 6.75285L33.6265 8.13299C33.6238 8.30178 33.7971 8.54877 33.8528 8.7365C33.921 8.96586 33.91 9.20914 33.9253 9.44595L33.9884 10.1225C34.0153 10.4981 34.0648 10.8449 34.1129 11.215L35.4389 22.6994L36.1887 28.2658L36.8852 32.8689C36.9586 33.3553 37.0722 33.9481 37.115 34.4116L37.8224 38.9399C37.8943 39.3736 37.9164 39.6357 37.8026 40.0608L37.7963 40.0847C37.3572 41.6364 32.9508 42.2532 31.5814 42.4663L30.0807 42.6717C29.6273 42.722 28.4315 42.8238 27.9966 42.6959C26.3838 42.2217 26.2381 41.9531 25.9477 40.401L25.1532 35.5367ZM18.2493 6.40953L15.5393 6.4198L15.539 7.89725C15.7184 7.91872 15.8887 7.89819 16.0669 7.90752L18.7058 7.94052L18.6937 6.41042L18.2493 6.40953ZM23.4991 6.41544L22.3144 6.43841L22.3066 7.43108C22.3069 7.61281 22.2941 7.80678 22.3169 7.98664L24.4809 7.97108L25.6237 7.96785L25.6227 6.41867L23.4991 6.41544ZM29.2326 6.41488L29.2309 7.90142L32.4611 7.91544L32.4589 6.86891C32.4587 6.72772 32.4807 6.554 32.4474 6.41881L29.2326 6.41488ZM19.9211 6.42195L19.8766 7.89702C19.8732 9.80211 19.8163 10.3917 18.507 12.012C17.5782 13.1615 16.7042 13.7322 15.3889 14.4238C15.2643 14.4893 14.6624 14.7036 14.6466 14.816L13.7347 22.9979L11.483 38.3205C11.3999 38.7578 11.1263 39.5954 11.4944 39.9553C12.17 40.616 14.3393 41.0267 15.2166 41.0874L18.6547 41.4695C19.3749 41.5032 20.0686 41.4976 20.7068 41.1223L21.6504 35.3791L23.2667 24.258C23.2999 24.0354 23.3817 23.8127 23.3975 23.5888C23.4281 23.1535 23.4052 22.7033 23.4053 22.266L23.4046 9.2323L22.2541 9.23469C22.0178 9.23469 21.7278 9.27125 21.5096 9.173L21.4777 9.15955C20.9977 8.9533 21.1138 8.4612 21.1133 8.04078L21.1134 6.42777L19.9211 6.42195ZM26.8447 6.42463C26.8114 6.97911 26.8293 7.54845 26.8375 8.1027C26.8493 8.9008 26.7151 9.23713 25.7677 9.23642L24.5925 9.22077L24.5837 22.3515C24.5848 22.8957 24.6056 23.3733 24.6953 23.909L24.8923 25.3244C24.9793 25.9541 25.0378 26.5975 25.1491 27.2228L25.4578 29.3919C25.4753 29.5114 25.4797 29.6361 25.5015 29.7541L26.782 38.103C26.8576 38.5793 27.1666 41.0417 27.3897 41.1822C28.6159 41.9547 32.33 41.1104 33.6852 40.8537C34.174 40.7252 36.6817 40.1683 36.7008 39.633C36.7167 39.1872 36.5754 38.6896 36.5004 38.2502L34.4387 24.4572L33.2974 14.4441C33.2025 14.3636 32.9053 14.3231 32.7777 14.2862C30.5473 13.6422 29.1767 12.007 28.418 9.83605C28.2583 9.37888 28.1012 8.87975 28.0624 8.39549L28.0514 6.42795L26.8447 6.42463ZM16.2114 9.17178L15.2905 9.17905C15.2534 9.3762 15.2616 9.56699 15.2484 9.76578L14.9669 12.2497C14.9208 12.6016 14.8553 12.9538 14.8563 13.3095C15.4125 13.0584 15.9296 12.7516 16.4055 12.3691C17.4137 11.5735 18.3321 10.483 18.613 9.20431C18.2927 9.1587 17.9605 9.17281 17.6372 9.17216L16.2114 9.17178ZM29.6127 9.17281L29.5351 9.19095C29.5308 9.25058 29.5426 9.29408 29.5591 9.35024L29.8285 10.1135C30.2723 11.3896 31.8084 12.8488 33.1093 13.0795L32.7341 9.20614C32.319 9.11853 31.8087 9.17127 31.3838 9.17117L29.6127 9.17281Z" fill="black"/>
</svg>
