<svg width="48" height="48" viewBox="0 0 48 48" fill="none" xmlns="http://www.w3.org/2000/svg">
<path d="M19.77 42.7319L17.748 42.7323C17.3217 42.7321 16.8682 42.7625 16.4447 42.7246C14.3436 42.5367 12.7768 40.7507 12.3751 38.754C12.1838 37.8027 12.3627 36.8661 12.3274 35.9158C12.2553 36.0739 12.164 36.2205 12.0825 36.3737L11.3794 37.7183C11.0229 38.438 10.5722 39.8569 10.5081 40.6021C10.4637 41.1183 10.1375 41.5182 9.6413 41.6811L9.60985 41.691C9.52753 41.7176 9.45605 41.7214 9.37008 41.7221L6.12352 41.721C4.91218 41.719 4.86863 41.0919 4.87079 40.0228L4.87411 38.1899C4.85021 38.1439 4.82639 38.0966 4.78125 38.0683L4.72027 38.0335C4.62449 37.9756 4.53435 37.8609 4.45606 37.7806C3.38135 36.6793 3.02113 35.4192 3.01954 33.9297C3.01746 31.9872 3.59863 30.9193 4.24127 29.1095L9.09 16.2105C9.32189 15.5775 9.46688 14.9173 9.73477 14.2979C10.5047 12.5177 12.0385 11.0738 13.8528 10.3906C14.3778 10.1929 14.9213 10.0584 15.4596 9.90416L17.0187 9.42627C17.4769 9.27955 17.4161 9.38586 17.3971 8.94149C17.3803 8.54624 17.356 8.10791 17.4022 7.71608C17.5517 6.44778 18.6079 5.40791 19.8755 5.26499C20.7827 5.16266 21.5361 5.53925 22.3778 5.78952C24.8241 6.51683 25.5357 5.41963 27.6154 5.23682C28.9063 5.14386 30.0172 5.94458 30.4696 7.1368C30.7194 7.79539 30.6169 8.58149 30.6243 9.27749C30.9472 9.45388 31.3435 9.52133 31.6932 9.63421L32.947 10.0225C35.4719 10.7616 37.1118 11.8783 38.2755 14.3827C38.5255 14.9209 38.5527 15.2713 38.7338 15.7535L43.6396 28.7579L44.5324 31.2657C44.598 31.4449 44.6715 31.6331 44.7073 31.8211L44.9316 32.9451C45.0032 33.27 45.0222 34.3603 44.9473 34.7067L44.8844 35.0952C44.7062 36.0063 44.2782 36.9836 43.632 37.6596C43.197 38.1146 43.1803 37.8631 43.1748 38.5598L43.1766 40.4888C43.1746 41.0605 42.8865 41.6766 42.2458 41.7175C41.6104 41.7579 40.9498 41.7209 40.311 41.7209L39.3367 41.7231C37.9979 41.7455 37.7247 41.5515 37.474 40.3163C37.1884 38.9098 36.7061 37.8581 36.0417 36.6194L35.6886 35.9182L35.7199 37.1915C35.7217 37.6367 35.7338 38.0828 35.6798 38.5256C35.4089 40.7458 33.7819 42.2928 31.6357 42.7065C31.297 42.7718 30.8898 42.7318 30.543 42.7318L19.77 42.7319ZM20.1813 6.7356C19.6214 6.79124 19.2569 6.99735 19.013 7.50008L18.9965 7.53252C18.7905 7.94525 18.7714 8.50677 18.8734 8.9526L18.8831 8.99825C19.1792 10.3576 18.6808 10.4365 17.4566 10.8519L14.9419 11.6266C13.2732 12.1551 11.8286 13.2407 11.1177 14.8849C10.8803 15.434 10.7626 16.0133 10.5539 16.5725L6.19655 28.1404C5.5561 29.8362 4.13983 32.8671 4.51072 34.7025L4.53869 34.8197C4.56957 34.9423 4.57546 35.0693 4.61025 35.1915C5.03049 36.6675 6.35222 37.5984 7.87857 37.622L8.82708 37.6285C9.13332 37.6297 9.46997 37.6592 9.77302 37.6244C9.85139 37.496 9.87586 37.3457 9.94402 37.2101L11.9524 33.3399C13.3534 30.6352 13.5945 29.0669 13.4433 25.9337C13.429 25.6371 13.4322 25.3387 13.4025 25.0431L13.119 23.0311C13.057 22.645 12.849 22.0112 13.0017 21.631L13.0163 21.5941C13.1499 21.2689 13.5026 21.0569 13.852 21.1583L13.8857 21.1678C14.0803 21.2248 14.2196 21.3653 14.3141 21.541L14.3581 21.6307C14.4181 21.748 14.4303 21.9033 14.4475 22.033L14.6963 23.6134C14.9341 25.4294 15.0676 27.2432 14.8741 29.0722C14.6992 30.7237 14.1214 32.3048 13.9746 33.9588L13.8833 35.4544C13.8722 35.7313 13.8735 36.018 13.8481 36.293L13.7767 37.5118C13.7293 39.3324 14.7979 41.0334 16.7411 41.2471C17.0784 41.2843 17.4311 41.2659 17.7707 41.2661L30.668 41.2645C30.8819 41.264 31.1482 41.2861 31.3539 41.233C32.9167 40.8295 34.1839 39.69 34.2254 38.0103C34.2979 37.1738 34.1734 36.4007 34.1388 35.5749L34.0613 34.6136C34.0278 33.8479 34.0285 33.722 33.8753 32.9759L33.1185 29.0157C33.0658 28.5374 33.032 28.0538 33.0292 27.5728L33.1233 25.0548L33.4683 22.4766C33.5216 22.1672 33.5398 21.679 33.7219 21.4193C34.0485 20.9538 34.7423 21.0837 34.9691 21.5626L34.9823 21.5895C35.1642 21.9729 34.8496 23.1468 34.7893 23.5844L34.6385 24.8761C34.6249 25.0011 34.5969 25.1244 34.5871 25.2498L34.5439 26.2266C34.4705 27.4038 34.5113 29.5073 34.9146 30.6533L35.138 31.3209C35.6415 32.6418 36.3646 33.8946 37.0048 35.152L37.8121 36.7903C37.9499 37.067 38.0653 37.3212 38.1789 37.606C38.2898 37.6569 40.3565 37.6327 40.5566 37.6096C42.4383 37.3927 43.4876 35.8141 43.5096 34.0267C43.5253 32.7497 43.2535 32.0428 42.8286 30.8615L37.3688 16.3566C37.2685 16.057 37.2097 15.7457 37.1138 15.4454C36.6297 13.9296 35.31 12.5673 33.8782 11.9384C33.3293 11.6973 32.7527 11.5595 32.182 11.3834L30.4745 10.8151C29.8976 10.6205 29.2639 10.5229 29.0225 9.88325C28.8871 9.52457 29.0881 9.22105 29.1506 8.87117C29.4339 7.28539 28.5416 6.45613 27.02 6.84819L27.5075 8.36253C27.658 8.88636 27.1013 10.5217 27.3139 11.5348C27.3349 11.6345 27.3254 11.7467 27.3224 11.8482C27.2154 15.476 22.6312 16.4666 21.0551 13.3767L20.8871 12.9905C20.5928 12.2612 20.7808 11.4924 20.7228 10.7308C20.6801 10.1704 20.3547 8.77433 20.5023 8.29696L20.9746 6.85907C20.705 6.80132 20.4585 6.74535 20.1813 6.7356ZM22.413 7.34277L22.1889 7.93597C21.7143 9.13677 22.1868 9.4866 22.1903 10.684L22.1916 11.7075C22.1918 11.8934 22.1743 12.1068 22.2174 12.2884C22.5459 13.6721 24.27 14.1511 25.2788 13.1565C26.2365 12.0816 25.6016 11.171 25.8508 9.95872C26.1742 8.38503 25.9609 8.62569 25.6481 7.32435C24.5282 7.60199 23.546 7.59022 22.413 7.34277ZM6.3585 38.8966C6.35808 39.0696 6.32714 40.1572 6.37575 40.2202L9.01819 40.2271L9.07327 40.013L9.19932 39.4469C9.21807 39.3563 9.2258 39.2455 9.26799 39.1637C8.28985 39.1626 7.29839 39.224 6.3585 38.8966ZM41.6385 38.918C40.592 39.2222 39.7468 39.1231 38.7338 39.157L38.9714 40.0363L39.0191 40.2058C39.1055 40.2336 39.2094 40.2217 39.3003 40.2216L40.9726 40.2174C41.2025 40.2164 41.4433 40.226 41.6714 40.1998L41.6385 38.918Z" fill="black"/>
<path d="M28.3819 29.3483C28.3251 29.1875 28.305 29.0049 28.2266 28.8551L19.7745 28.855C19.7023 28.9683 19.6867 29.1025 19.6355 29.2264L19.1824 30.2751C18.9265 30.8267 18.6168 31.3791 18.2807 31.8852L17.7353 32.642C17.1363 33.4958 17.0139 34.7288 17.5173 35.6542C17.6266 35.8553 17.8149 36.0225 17.897 36.234L17.9618 36.4126C18.1523 37.1749 17.1778 37.7655 16.4757 36.7849C15.5178 35.4473 15.4839 33.3603 16.3778 31.9768L17.0279 31.0706C17.5628 30.2829 17.9593 29.4267 18.3011 28.5412C18.5129 27.9929 18.5822 27.4635 19.2439 27.334L28.0326 27.3552C28.6032 27.3548 29.2037 27.2332 29.4495 27.9036L30.1233 29.6586C30.3929 30.1959 30.6589 30.6917 31.01 31.1819C31.262 31.5336 31.5677 31.845 31.771 32.2303C32.3415 33.3111 32.3867 34.6682 32.0234 35.818L31.9412 36.0485C31.0332 38.1914 29.607 37.1513 30.137 36.1107C30.2608 35.8677 30.4623 35.679 30.5792 35.422C30.8735 34.7751 30.8854 33.7876 30.5889 33.1365C30.4539 32.8402 30.2187 32.5991 30.0187 32.3468C29.3065 31.4486 28.7835 30.4191 28.3819 29.3483Z" fill="black"/>
</svg>
