<svg width="48" height="48" viewBox="0 0 48 48" fill="none" xmlns="http://www.w3.org/2000/svg">
<path d="M24.3675 41.6848L23.937 40.9344C23.8628 41.0745 23.8152 41.2238 23.7434 41.3639C23.0675 42.6824 21.767 43.5845 20.2689 43.6583L16.7259 43.6638C15.1003 43.6613 14.5595 42.99 14.5593 41.348L14.5529 34.2556C13.8441 34.7662 13.0431 34.2536 12.4334 34.2888C12.1469 34.3054 11.8996 34.4252 11.6248 34.4851C9.20943 35.0114 9.36351 30.4937 9.36581 28.911C9.36651 28.4528 9.34856 27.9838 9.37996 27.5269L10.7648 15.1402C10.8517 14.3812 10.8641 13.6265 10.9804 12.8686C11.2521 11.0972 12.5457 9.5285 14.1467 8.77691C14.8727 8.43608 15.6608 8.28294 16.3944 7.96794C16.9306 7.73773 18.8872 6.42003 19.0659 5.90436C19.0948 5.82125 19.0769 5.65775 19.0912 5.56264L19.0962 5.53081C19.2434 4.53827 20.1145 4.59061 20.9061 4.49781C21.5705 4.41992 22.2167 4.32669 22.8868 4.31419C24.0527 4.31244 25.0062 4.2833 26.1678 4.39671C26.8072 4.45913 28.5703 4.47835 28.7725 5.17925L28.7818 5.21441C28.8197 5.32241 28.8486 5.423 28.8502 5.53892C28.8565 6.02923 29.2682 6.32108 29.6187 6.61564C30.0547 6.98206 30.4963 7.40741 30.9795 7.70698C31.8961 8.27525 33.0099 8.37636 33.9699 8.84872C35.1204 9.41483 36.0439 10.3568 36.5749 11.5243C37.1044 12.6883 37.1206 13.9173 37.2295 15.1665L38.261 24.5208C38.4162 25.6286 38.6035 26.7541 38.6328 27.875L38.6401 29.3C38.6406 30.8208 38.5277 31.8045 38.1778 33.2554C37.985 34.0546 37.1901 34.6433 36.3585 34.4703C36.1388 34.4246 35.9325 34.3295 35.7063 34.3147C34.9054 34.2624 34.2805 34.7755 33.4633 34.229L33.4452 41.8999C33.445 42.0475 33.4544 42.2045 33.4015 42.3447L33.3924 42.368C33.1417 43.1533 32.5666 43.6248 31.7246 43.6603L28.2389 43.664C26.5873 43.6621 25.3199 43.1266 24.3675 41.6848ZM23.3174 5.60675L22.0828 5.68208C21.6069 5.71264 21.1507 5.72886 20.6799 5.8175L21.49 7.06058C21.5302 7.1315 21.5964 7.24189 21.6638 7.28506L22.4856 7.15475C22.8826 7.10661 23.2568 7.04755 23.6577 7.04323L24.5641 7.04431C25.2406 7.06184 25.8043 7.2237 26.3912 7.26092C26.6919 6.701 26.9504 6.31133 27.2716 5.79317C26.9115 5.71803 26.5559 5.69848 26.1905 5.66975L23.3174 5.60675ZM28.0707 6.86984C27.7662 7.20739 27.5578 7.72091 27.3689 8.13238L25.4081 12.6441L24.8316 14.3469C24.9785 14.6204 25.0745 14.6998 25.3831 14.6323L25.4101 14.627C25.5195 14.604 25.6537 14.5228 25.7446 14.4581C26.972 13.5147 27.9103 11.3773 28.4436 9.98408L29.1941 7.91197C28.9365 7.60325 28.4069 7.24789 28.0707 6.86984ZM19.9011 6.90177C19.56 7.28262 19.1961 7.60808 18.7934 7.92303L20.4324 11.8355C20.8915 12.8058 21.2663 13.8836 22.2374 14.4733C23.5755 15.1157 23.0013 13.8562 22.7876 13.2271C22.0621 11.0907 21.2623 8.89353 19.9851 7.01394L19.9011 6.90177ZM23.5688 8.32306L22.6967 8.41569C22.5867 8.42647 22.361 8.42281 22.2679 8.47958L23.5663 11.6715C23.7025 11.9752 23.8013 12.5973 23.9881 12.8233L24.179 12.3804L25.6657 8.84506C25.7055 8.74639 25.8235 8.53414 25.8201 8.43664C25.4711 8.38377 23.9024 8.24281 23.5688 8.32306ZM17.7254 8.68316C17.2061 9.056 16.6085 9.25306 16.0085 9.45223C14.145 10.0708 12.5599 10.961 12.1873 13.1219C12.0868 13.7048 12.0948 14.3045 12.0407 14.8924L10.9325 24.923C10.8114 25.8727 10.6592 26.8162 10.5978 27.773C10.4806 29.5994 10.6013 31.381 11.0747 33.1519C11.2906 33.3786 12.3087 32.9778 12.8891 33.0624C13.3952 33.1362 14.5409 33.4211 14.5581 32.4988L14.5636 23.4594L14.6321 20.8811C14.6335 20.3832 14.6967 20.0503 14.7183 19.5974L14.8967 16.932C14.9158 16.7546 14.9061 16.5541 14.9557 16.3827C15.1837 15.5953 16.2606 15.8424 16.1604 16.6629L15.823 24.4332L15.8196 41.447C15.8185 41.7614 15.7296 42.3781 16.24 42.3909L19.6748 42.3904C21.2253 42.3876 22.6702 41.7009 22.7468 39.9393L22.7375 15.9236C20.4816 15.702 19.639 13.1645 18.8712 11.3984L17.7778 8.76767C17.7674 8.73941 17.7555 8.69675 17.7254 8.68316ZM30.2285 8.77691C29.5832 10.6534 28.8258 12.5728 27.6739 14.2C26.9713 15.1923 26.4467 15.6849 25.2742 15.9527C25.2127 16.3246 25.2454 16.7211 25.2448 17.0972L25.2361 38.6038C25.2371 39.2885 25.1347 40.2327 25.384 40.8432C25.6713 41.547 26.3745 42.0629 27.0891 42.2668L27.5251 42.3643C27.729 42.4077 27.9624 42.3908 28.1708 42.3912L31.7467 42.3905C32.2083 42.3678 32.1978 41.8546 32.1943 41.5122L32.1888 24.4566L32.18 22.0585L32.0558 19.5041L31.8563 17.0118C31.84 16.8523 31.7986 16.6732 31.807 16.5142C31.8486 15.7213 33.0233 15.6193 33.0705 16.6514L33.3134 20.6139C33.3224 20.8198 33.3574 21.0213 33.3635 21.2291L33.3751 22.8286C33.3801 23.0325 33.4353 23.2255 33.4399 23.4299L33.4446 32.3046C33.4446 32.4135 33.435 32.5408 33.4583 32.6468C33.5864 33.2298 34.3379 33.1724 34.752 33.1083C35.7499 32.9539 36.0337 33.2143 36.8425 33.2123C37.5622 31.5589 37.4904 28.5049 37.3167 26.7744L36.8743 23.531L35.9373 14.7701C35.873 14.1476 35.8674 13.5277 35.739 12.9117C35.4583 11.5645 34.3477 10.305 33.0637 9.83342C32.247 9.53347 31.4022 9.3732 30.6261 8.96441C30.5289 8.91322 30.3407 8.74831 30.2285 8.77691ZM24.0133 15.5738L23.9928 15.6192C23.9507 15.8242 23.9162 15.9864 23.9144 16.203L23.9146 38.6384C23.9208 38.8964 23.9254 39.1966 23.9938 39.4447L24.0611 39.4332L24.0645 16.2289C24.0644 16.0169 24.0866 15.7818 24.0448 15.5749L24.0133 15.5738Z" fill="black"/>
</svg>
