<svg width="48" height="48" viewBox="0 0 48 48" fill="none" xmlns="http://www.w3.org/2000/svg">
<path d="M20.2869 39.3572L20.0646 39.7734C19.2969 41.0251 17.4464 41.5924 16.0394 41.3691C15.5636 41.2935 15.1053 41.1477 14.6453 41.0072L8.89289 39.3174C8.328 39.1525 7.73334 39.0436 7.17914 38.85C6.00342 38.4394 5.02476 37.302 4.76381 36.0981C4.58117 35.2553 4.79292 34.4553 4.86581 33.6151L5.5552 24.0586C5.56645 23.897 5.59786 23.7387 5.61295 23.578L5.721 22.2164C5.76225 21.5985 5.72948 20.9751 5.74158 20.356L5.80148 19.4578C5.92092 17.4867 6.17611 15.5105 6.71194 13.6054L7.19325 11.9715C7.46653 11.132 7.74675 10.3676 7.80215 9.47776C7.89351 8.0102 8.04384 7.01106 9.70322 6.62523C10.1995 6.50987 10.7396 6.66259 11.2331 6.7405L12.6446 6.93475C13.63 7.0449 14.6322 7.13837 15.6239 7.14376L18.1864 7.14845C18.936 7.14793 19.6592 7.13631 20.4032 7.06332L22.0207 6.90934C22.9627 6.80771 23.9134 6.69868 24.8624 6.77725L28.5467 7.13631L31.49 7.14479C32.365 7.13973 33.2315 7.05029 34.1017 6.96985L36.4002 6.73C36.8987 6.67412 37.39 6.57821 37.8916 6.54967C39.1976 6.42076 40.1264 7.60792 40.21 8.80923C40.2731 9.71729 40.3154 10.6185 40.6075 11.4917L41.051 13.0099L41.7669 16.1015C41.944 17.0691 42.0928 18.2717 42.1606 19.2617L42.1885 20.7415C42.1889 21.212 42.2194 21.423 42.262 21.8662L43.1972 33.803C43.243 34.3529 43.3754 35.0262 43.2554 35.5737L43.1968 35.9112C42.6933 38.2837 41.2462 38.6544 39.2579 39.2442L34.1587 40.8206C33.6342 40.9946 33.0876 41.2156 32.5431 41.3149C30.8114 41.6311 29.0613 41.1863 27.9936 39.7029C27.6963 39.29 27.5481 38.8638 27.3664 38.3966L24.1167 28.6281C24.0862 28.527 24.0697 28.3607 24.0157 28.2773L23.023 31.5265L20.9916 37.585C20.7834 38.1806 20.5701 38.7924 20.2869 39.3572ZM37.7333 8.31029L32.7892 8.88367C32.2468 8.92112 31.6862 8.89712 31.1419 8.89815L28.7145 8.8899L26.0962 8.68464C24.3207 8.48987 23.6549 8.46386 21.8673 8.67845L20.2835 8.81978C19.9381 8.84823 19.5964 8.88971 19.2492 8.89379L15.8229 8.8892L11.241 8.49306C10.8231 8.43751 10.397 8.35567 9.97669 8.32946C9.4837 8.29876 9.52097 9.40876 9.56137 9.78873L10.307 9.83523L12.1774 10.0284C13.0533 10.1495 13.2766 10.2432 14.1102 10.4943C15.8352 11.0139 17.7558 10.8753 19.5334 10.8757L29.432 10.8746C30.8007 10.8742 32.2612 10.9851 33.5897 10.5822C34.5036 10.3052 34.9575 10.1441 35.8979 10.0145L37.7017 9.80903C37.9636 9.78418 38.2477 9.7929 38.5052 9.75048L38.4793 9.09775C38.4727 8.91718 38.4987 8.60532 38.3606 8.46995L38.3102 8.42232C38.1853 8.30706 38.0509 8.28873 37.8857 8.29764L37.7333 8.31029ZM38.7743 11.4492L37.2704 11.5888C36.66 11.6699 36.5951 11.5315 36.8829 12.3139L37.035 12.8081C37.044 12.8455 37.0558 12.8762 37.0696 12.9117L37.5496 14.2968L38.8416 17.1527L39.6607 18.5982L40.229 19.4283C40.3079 19.5373 40.3698 19.6565 40.4736 19.7443L40.499 19.7226C40.4165 19.3487 40.4029 18.9587 40.3732 18.5775L40.213 17.2138C39.9564 15.5777 39.5415 13.9605 39.0918 12.3677L38.9005 11.69C38.8806 11.6142 38.8763 11.4998 38.8239 11.4421L38.7743 11.4492ZM9.19912 11.5008C9.04017 11.8542 8.92584 12.2605 8.81315 12.6445L8.16497 15.0716L7.78992 17.1008L7.4978 19.7717C7.85194 19.4269 8.139 18.9945 8.40028 18.5759L9.27436 17.0669C10.0243 15.6204 10.6465 14.0029 11.0665 12.4265L11.1996 11.9175C11.2235 11.8267 11.2655 11.7266 11.2645 11.633L9.19912 11.5008ZM35.0208 11.9414L34.9986 11.9512C34.2003 12.2985 32.9271 12.5196 32.0377 12.5349L28.4754 12.5384C28.0204 12.5385 27.5466 12.5115 27.0935 12.5453L27.0877 17.2248C27.0895 17.8753 27.1365 18.5589 27.06 19.2035C26.8726 20.7811 25.796 22.7189 24.128 23.0783C24.1686 23.6092 24.2443 24.1983 24.375 24.7148L24.4309 24.9353C24.4674 25.1049 24.6397 25.2058 24.7262 25.3593C24.9602 25.7749 25.1778 26.2698 25.3398 26.7185L25.7908 28.1476L28.8864 37.6134C28.9057 37.6734 28.9417 37.7284 28.9733 37.7827L30.2527 37.3997L41.5033 33.8942L40.5257 22.0812C37.9942 20.5521 35.8331 15.1098 35.1252 12.1945L35.0208 11.9414ZM12.8018 11.9882C12.723 12.274 12.6752 12.5716 12.6137 12.8619C12.0862 15.3497 10.1028 20.5078 7.65173 21.8592C7.58883 21.8939 7.52503 21.9109 7.48425 21.9733C7.4708 23.1457 7.31915 24.3206 7.2187 25.4882L6.6239 33.4348C6.61673 33.5777 6.58392 33.766 6.61209 33.9046L17.3112 37.1553L19.0404 37.7174L19.7776 35.6402L22.601 26.8727C22.7422 26.3693 22.8505 26.0947 22.7505 25.5736L22.4515 23.789C22.3975 23.482 22.4147 23.1784 22.4222 22.869L22.4295 21.9445C22.4452 21.6294 22.4947 21.3261 22.4968 21.0081L22.4915 12.5396L17.9662 12.5379C16.2176 12.5378 15.3285 12.588 13.6062 12.1793L13.0754 12.052C12.9938 12.0321 12.8838 11.9909 12.8018 11.9882ZM24.1767 12.5377L24.0673 21.3474C24.3173 21.1107 24.5413 20.9139 24.7538 20.6333C25.1804 19.9903 25.4458 19.1815 25.4806 18.4057L25.4743 13.1323C25.4742 12.9612 25.4992 12.7363 25.4685 12.5709L24.1767 12.5377ZM6.39478 35.6367C6.39844 35.7292 6.41479 35.7864 6.4492 35.8711L6.46565 35.9136C6.83967 36.8554 7.56253 37.1291 8.44744 37.3801L14.99 39.2952C15.7898 39.5347 16.7231 39.8893 17.5442 39.5437L17.822 39.4104L18.1005 39.2261C17.9407 39.1854 17.79 39.123 17.6321 39.0762L7.18631 35.8704C6.95011 35.7935 6.64003 35.6495 6.39478 35.6367ZM41.5962 35.6367L30.5232 39.0624C30.0739 39.1928 29.8147 39.1639 30.3062 39.3986C31.3969 39.9252 32.5982 39.5231 33.6687 39.1881L38.3742 37.7201C39.6194 37.3573 41.3333 37.152 41.6719 35.6367C41.6152 35.6316 41.6404 35.6301 41.5962 35.6367Z" fill="black"/>
</svg>
