<svg width="100" height="100" viewBox="0 0 100 100" fill="none" xmlns="http://www.w3.org/2000/svg">
<path d="M42.2643 81.9941L41.8011 82.8613C40.2017 85.4689 36.3465 86.6509 33.4153 86.1856C32.424 86.0282 31.4692 85.7244 30.511 85.4318L18.5267 81.9112C17.3499 81.5677 16.111 81.3408 14.9564 80.9376C12.507 80.0822 10.4681 77.7125 9.92446 75.2044C9.54396 73.4486 9.98511 71.7819 10.137 70.0315L11.5732 50.122C11.5966 49.7855 11.6621 49.4556 11.6935 49.1209L11.9186 46.2842C12.0045 44.9968 11.9363 43.6981 11.9615 42.4084L12.0863 40.5372C12.3351 36.4307 12.8667 32.3136 13.9831 28.3447L14.9858 24.9406C15.5551 23.1917 16.1389 21.5992 16.2543 19.7454C16.4447 16.688 16.7579 14.6064 20.2149 13.8026C21.2488 13.5623 22.374 13.8804 23.4022 14.0427L26.3428 14.4474C28.3958 14.6769 30.4836 14.8716 32.5496 14.8829L37.8882 14.8926C39.4498 14.8916 40.9565 14.8673 42.5066 14.7153L45.8764 14.3945C47.8387 14.1828 49.8194 13.9556 51.7965 14.1193L59.4721 14.8673L65.604 14.885C67.427 14.8745 69.2322 14.6881 71.045 14.5206L75.8336 14.0209C76.8721 13.9045 77.8957 13.7047 78.9407 13.6452C81.6616 13.3766 83.5966 15.8499 83.7706 18.3526C83.9022 20.2444 83.9903 22.1218 84.5988 23.941L85.5227 27.1041L87.0143 33.5449C87.3831 35.5606 87.6932 38.0661 87.8344 40.1286L87.8925 43.2116C87.8933 44.1918 87.957 44.6313 88.0456 45.5546L89.994 70.4229C90.0894 71.5686 90.3652 72.9713 90.1153 74.1119L89.9931 74.815C88.9442 79.7577 85.9293 80.5301 81.7872 81.7588L71.1638 85.043C70.071 85.4055 68.9323 85.8658 67.7979 86.0728C64.1903 86.7314 60.5443 85.8048 58.3198 82.7145C57.7005 81.8543 57.3917 80.9663 57.0132 79.9929L50.2429 59.6419C50.1795 59.4312 50.1452 59.0849 50.0325 58.9111L47.9644 65.6803L43.7324 78.3021C43.2986 79.543 42.8542 80.8175 42.2643 81.9941ZM78.6109 17.3131L68.3106 18.5077C67.1806 18.5857 66.0128 18.5357 64.8788 18.5379L59.8216 18.5207L54.3669 18.093C50.6679 17.6873 49.2808 17.6331 45.5567 18.0801L42.2572 18.3746C41.5376 18.4339 40.8257 18.5203 40.1023 18.5288L32.9642 18.5192L23.4186 17.6939C22.548 17.5782 21.6602 17.4077 20.7846 17.3531C19.7576 17.2891 19.8352 19.6016 19.9194 20.3932L21.4727 20.4901L25.3695 20.8924C27.1942 21.1448 27.6595 21.3401 29.3961 21.8632C32.9898 22.9458 36.9911 22.6569 40.6944 22.6578L61.3165 22.6555C64.1679 22.6546 67.2107 22.8856 69.9785 22.0464C71.8824 21.4691 72.8279 21.1337 74.7871 20.8636L78.5451 20.4355C79.0908 20.3838 79.6827 20.4019 80.2191 20.3135L80.165 18.9537C80.1513 18.5775 80.2055 17.9278 79.9177 17.6458L79.8128 17.5465C79.5526 17.3064 79.2726 17.2682 78.9285 17.2868L78.6109 17.3131ZM80.7797 23.8525L77.6465 24.1433C76.3747 24.3123 76.2396 24.024 76.8393 25.654L77.1562 26.6836C77.1749 26.7616 77.1994 26.8254 77.2282 26.8994L78.2282 29.7851L80.9198 35.7348L82.6263 38.7463L83.8103 40.4756C83.9747 40.7027 84.1036 40.951 84.3198 41.1339L84.3727 41.0888C84.2008 40.3099 84.1726 39.4973 84.1106 38.7031L83.7769 35.8622C83.2424 32.4536 82.378 29.0843 81.4412 25.7661L81.0426 24.3543C81.001 24.1964 80.9921 23.958 80.8831 23.8378L80.7797 23.8525ZM19.1647 23.96C18.8335 24.6963 18.5954 25.5428 18.3606 26.3427L17.0102 31.3993L16.2289 35.6267L15.6203 41.191C16.3581 40.4727 16.9561 39.5718 17.5004 38.6999L19.3214 35.5561C20.8837 32.5426 22.1801 29.1727 23.055 25.8886L23.3323 24.8282C23.3821 24.639 23.4696 24.4305 23.4676 24.2355L19.1647 23.96ZM72.9599 24.8779L72.9135 24.8984C71.2504 25.6219 68.598 26.0826 66.7452 26.1144L59.3237 26.1216C58.3756 26.1218 57.3885 26.0657 56.4446 26.136L56.4325 35.885C56.4363 37.2403 56.5342 38.6643 56.3748 40.0073C55.9845 43.2939 53.7415 47.3311 50.2666 48.0798C50.3511 49.1858 50.5087 50.4131 50.781 51.4892L50.8976 51.9485C50.9736 52.302 51.3327 52.5121 51.5127 52.832C52.0002 53.6978 52.4537 54.7289 52.7911 55.6636L53.7306 58.6409L60.1798 78.3612C60.2201 78.4864 60.295 78.6008 60.361 78.7139L63.0262 77.9162L86.4651 70.6131L84.4285 46.0026C79.1544 42.817 74.6522 31.4788 73.1774 25.4053L72.9599 24.8779ZM26.6703 24.9756C26.5062 25.571 26.4066 26.1908 26.2784 26.7957C25.1795 31.9786 21.0474 42.7247 15.941 45.5401C15.8099 45.6124 15.677 45.6478 15.592 45.7778C15.564 48.2202 15.2481 50.6679 15.0388 53.1006L13.7997 69.6558C13.7847 69.9535 13.7164 70.346 13.775 70.6345L36.0648 77.407L39.6674 78.578L41.2033 74.2505L47.0853 55.9849C47.3795 54.9361 47.6051 54.3639 47.3968 53.2784L46.7739 49.5605C46.6613 48.921 46.6971 48.2884 46.7127 47.6437L46.7279 45.7178C46.7607 45.0614 46.8639 44.4295 46.8682 43.7669L46.8571 26.1242L37.4295 26.1207C33.7866 26.1205 31.9343 26.225 28.3461 25.3735L27.2402 25.1084C27.0703 25.067 26.8411 24.9811 26.6703 24.9756ZM50.368 26.1202L50.14 44.4738C50.661 43.9807 51.1276 43.5707 51.5704 42.9861C52.4589 41.6465 53.0119 39.9616 53.0844 38.3452L53.0713 27.359C53.071 27.0026 53.1233 26.5339 53.0591 26.1895L50.368 26.1202ZM13.3223 74.2431C13.3299 74.4359 13.364 74.555 13.4357 74.7314L13.47 74.8201C14.2492 76.7821 15.7551 77.3523 17.5987 77.8753L31.2291 81.865C32.8953 82.364 34.8396 83.1027 36.5503 82.3828L37.1291 82.105L37.7093 81.7212C37.3763 81.6364 37.0624 81.5063 36.7333 81.4089L14.9713 74.7299C14.4792 74.5699 13.8333 74.2699 13.3223 74.2431ZM86.6585 74.2431L63.5898 81.3801C62.6539 81.6516 62.1137 81.5916 63.1377 82.0804C65.41 83.1775 67.9127 82.3399 70.1429 81.642L79.946 78.5837C82.5404 77.8277 86.111 77.4001 86.8164 74.2431C86.6981 74.2325 86.7506 74.2295 86.6585 74.2431Z" fill="white"/>
</svg>
