<svg width="48" height="48" viewBox="0 0 48 48" fill="none" xmlns="http://www.w3.org/2000/svg">
<path d="M38.6986 41.5026C38.692 41.6905 38.6525 41.8735 38.6268 42.0587L38.5336 42.7736C38.3185 44.2652 38.3368 45.6784 36.6905 46.3352C36.4709 46.4229 36.2003 46.4773 35.9656 46.4808L12.592 46.482C11.5066 46.4823 10.8589 46.3964 10.1275 45.4007C9.65461 44.7571 9.65091 43.9771 9.53925 43.2189L7.99646 30.2697L7.89619 26.0886C7.89661 25.8768 7.88466 25.6524 7.9193 25.443L8.00935 24.7179C8.18002 23.6205 8.59889 22.5583 9.02293 21.5392L10.6862 17.6445C11.6001 15.2703 12.2335 12.8311 12.709 10.3361L12.9651 8.99612C13.0633 8.51706 13.1458 8.42701 13.0731 7.94547C13.0484 7.78206 13.0605 7.60112 13.0595 7.43594L12.9425 3.8472C12.9214 3.65209 12.873 3.43241 12.8946 3.23692C13.0053 2.23358 13.9361 1.63663 14.8716 1.50781C15.3074 1.39304 16.0558 1.76145 16.2079 2.18646C16.4002 2.72374 16.3664 3.47355 16.6095 4.13396L16.9 5.06265C17.8746 7.91284 20.092 10.0042 22.6453 11.4688L23.9699 12.1575C24.4507 12.004 24.9158 11.7148 25.359 11.4725C28.4558 9.77968 30.7273 7.05484 31.5218 3.60953L31.6858 2.7775C31.9069 1.42664 32.9792 1.16354 34.1249 1.82265C35.0151 2.33482 35.1418 3.18328 35.1418 4.10974L35.1374 7.93923C35.1312 9.21962 35.2316 9.89776 35.4851 11.1681C35.5688 11.5873 35.6184 12.0182 35.7193 12.4337L36.0004 13.6173C36.0246 13.7045 36.0571 13.7859 36.0758 13.8752L36.2634 14.5548C36.2728 14.6 36.2808 14.6366 36.2975 14.6799L36.5412 15.4689C36.6173 15.7484 36.7231 16.0243 36.8206 16.2973L37.9833 19.2663L39.2948 22.2629C39.9772 24.2294 40.129 25.0539 40.1298 27.1944L40.1237 28.9544L38.859 40.3947C38.8044 40.7617 38.7327 41.1332 38.6986 41.5026ZM14.8409 2.965C14.6895 3.03345 14.545 3.09946 14.4166 3.20732L14.3464 3.27043C14.3431 3.59603 14.3909 4.21613 14.4164 4.5678L14.5303 7.30867C14.5398 7.52383 14.5356 7.74343 14.5763 7.95568C16.3364 8.80417 16.2571 9.03025 17.4543 10.4829C18.9491 12.2966 20.8525 13.1797 22.8492 14.3027L23.6466 14.7478C23.9889 14.9322 23.962 14.9624 24.2928 14.7807L24.9816 14.388C27.1498 13.2322 29.1885 12.257 30.7141 10.2685C31.652 9.04609 32.1759 8.41815 33.691 7.81782L33.6915 4.71972L33.6979 3.7982C33.7084 3.2771 33.6495 3.14263 33.0942 2.93627C32.6306 6.70379 30.3575 9.95964 27.219 12.0312C26.6387 12.4142 24.4889 13.8231 23.8005 13.6276C23.1858 13.4531 22.6732 13.1417 22.1195 12.8357C18.5371 10.8569 16.1121 8.12251 15.1137 4.09565L14.907 3.12134C14.8949 3.066 14.8947 2.98936 14.8409 2.965ZM33.6848 9.41031C32.7888 9.75906 32.2138 10.7459 31.6287 11.4498C29.9621 13.4545 27.9591 14.4576 25.6849 15.6668L24.9429 16.0556C24.7216 16.1791 24.4952 16.3255 24.2575 16.4135L24.2264 16.4252C23.8273 16.5707 23.5684 16.3429 23.2426 16.1594L22.5525 15.7947C20.2338 14.5893 17.8835 13.3585 16.2317 11.2782L15.8166 10.7111C15.4445 10.2382 14.9638 9.72025 14.421 9.45029L13.5616 13.2857C13.1479 14.9134 12.6499 16.5102 12.0559 18.0827L10.763 21.1744C10.2586 22.3231 9.72596 23.4667 9.47096 24.7033C9.25519 25.7496 9.30408 28.4155 9.37444 29.5336L9.88763 34.2968C9.9721 35.005 10.009 35.7306 10.131 36.4325C10.3418 36.3307 10.5452 36.2344 10.7697 36.1659L11.566 35.9469C11.7463 35.8942 11.9649 35.902 12.1528 35.8977C15.0966 35.8302 16.012 38.2858 19.5583 37.2884C20.0713 37.1441 20.5281 36.8888 21.0231 36.7025C23.0912 35.9241 24.925 35.5299 27.0042 36.6433C28.5048 37.4468 29.9573 37.7925 31.6463 37.2783C32.3075 37.0771 32.8369 36.7186 33.4451 36.4118C34.8653 35.6956 36.4245 35.8012 37.8693 36.3661L38.7114 28.4886L38.7189 27.2316C38.7184 24.522 38.1796 23.2814 37.0608 20.7856L36.0676 18.422C35.6403 17.3702 35.2943 16.2964 34.9656 15.2111L34.108 11.6797C33.9657 10.9313 33.81 10.1701 33.7475 9.41031H33.6848ZM12.0663 37.3693C11.455 37.4356 10.8591 37.6291 10.3058 37.8958L10.6259 40.5132L37.3961 40.5151L37.5471 39.0418L37.6726 37.8852C35.9892 36.9503 34.796 37.3464 33.2809 38.1527C31.3898 39.1592 29.0513 39.2447 27.0977 38.3406C26.0909 37.8747 25.4637 37.3805 24.265 37.4287C23.0716 37.4767 22.0848 37.9945 20.9967 38.4036C19.0144 39.149 16.626 39.2121 14.7342 38.1734C13.8836 37.7063 13.0936 37.2418 12.0663 37.3693ZM10.8241 41.9808L11.1097 44.0978C11.3566 45.2423 12.3198 45.016 13.1897 45.0161L34.4941 45.0155C35.1537 45.0153 36.1578 45.1977 36.6156 44.6795L36.72 44.5508C36.9803 44.0754 37.1459 42.5377 37.1505 41.9947L10.8241 41.9808Z" fill="black"/>
</svg>
