<svg width="48" height="48" viewBox="0 0 48 48" fill="none" xmlns="http://www.w3.org/2000/svg">
<path d="M28.6993 44.2753L18.022 44.2979C15.7857 44.2987 13.5865 43.9856 11.5753 42.928C11.3545 43.9103 10.78 43.9226 9.86078 43.9213C8.194 43.9189 6.51213 43.5892 4.94542 43.0322C2.59635 42.1971 3.15099 41.6755 3.55945 39.6562L5.71605 27.8202L7.30811 16.0984C7.38438 15.4409 7.4193 14.7731 7.5408 14.1223C8.00064 11.6586 9.69588 9.47502 11.9763 8.42568C12.516 8.17734 13.0918 7.9957 13.6585 7.81959L15.7081 7.11951C16.5992 6.81384 16.2147 7.03157 16.7957 6.44779C17.5689 5.67079 18.47 5.05335 19.0022 4.06488C19.1252 3.8364 19.2704 3.75395 19.5094 3.68348C19.9307 3.66212 20.3404 3.74989 20.7566 3.76054L25.1553 3.83359C25.3901 3.82982 25.6191 3.79453 25.8522 3.78561L27.3097 3.74576C27.6263 3.72879 27.9339 3.68374 28.254 3.67812C28.9799 3.66539 28.8851 3.96466 29.2784 4.49907C29.5692 4.89417 29.903 5.25229 30.2628 5.58473C30.6369 5.9302 31.1515 6.26221 31.4092 6.70302C31.5845 7.00284 32.3409 7.14309 32.6646 7.25146L34.4884 7.87288C35.2429 8.12404 35.9986 8.3286 36.6876 8.74232C38.3805 9.75871 39.8277 11.4941 40.2971 13.4444L40.4142 13.9113C40.5353 14.3009 40.5469 14.7482 40.5944 15.1522L41.6718 23.4374C41.7038 23.6315 41.7115 23.8292 41.7477 24.0233L42.2707 27.7577C42.2817 27.8691 42.3133 27.9718 42.3325 28.0811L43.7816 36.1521L44.7056 41.034C44.891 42.3205 43.306 42.8766 42.3165 43.2201C40.9457 43.6961 39.4449 43.9332 37.9954 43.9186C37.3668 43.9122 36.4895 43.9533 36.346 43.1435C36.3302 43.0544 36.3294 42.922 36.2862 42.8451C34.4662 43.9415 32.6701 44.2694 30.6071 44.2728L28.6993 44.2753ZM20.0668 4.9139C20.1881 5.2574 20.3917 5.58637 20.5665 5.90577C21.2679 7.18743 22.9892 9.96553 24.1204 10.9551C24.7481 10.2622 25.2768 9.5362 25.7886 8.75446L27.8853 4.93832L20.0668 4.9139ZM28.835 5.80424C28.6428 6.1251 28.4918 6.4777 28.3281 6.81431L27.6107 8.1659C27.2291 8.81887 26.8218 9.48417 26.3837 10.1019L25.309 11.5639C25.5782 11.796 25.8972 11.9422 26.215 12.0946L27.2278 12.5549L27.7795 12.7816C29.0006 11.6183 30.0481 9.03665 30.4874 7.40863L28.835 5.80424ZM19.1283 5.84854C18.6271 6.41207 18.0945 6.95432 17.4995 7.41993C17.5157 7.49643 17.533 7.56253 17.5615 7.63542L17.9152 8.76909C18.0216 9.16007 18.2455 9.53348 18.4058 9.90299C18.8271 10.8736 19.5041 12.0343 20.2785 12.7821L20.9942 12.4601L22.8581 11.487C22.7885 11.35 22.6728 11.2275 22.5751 11.109L20.7997 8.6729L19.7924 6.97603C19.5794 6.59076 19.3966 6.19996 19.1283 5.84854ZM16.4273 8.1419L16.3982 8.15854C15.8915 8.44331 15.2526 8.56227 14.7025 8.75381L13.7228 9.09351C11.4236 9.83282 9.62125 11.1771 8.90945 13.6232C8.63945 14.5511 8.6005 15.492 8.47942 16.4448L7.35428 24.9421L6.80134 28.6219L4.6037 40.4836C4.54463 40.7879 4.5022 41.1069 4.41417 41.4038C4.91374 41.9181 7.26438 42.438 7.94359 42.5542C8.34208 42.6224 10.0482 42.8188 10.4211 42.6924C10.5902 42.4467 10.5838 42.0235 10.6236 41.7355L11.0542 38.4476L11.3384 34.9401L11.3751 33.2434C11.3809 33.0436 11.4281 32.8509 11.4326 32.6493L11.4332 24.2108C11.4279 23.9877 11.3778 23.7652 11.3735 23.5384L11.3541 21.2561C11.3334 20.7643 11.268 20.3454 11.2644 19.8153L11.2594 18.4493C11.2593 18.26 11.2257 17.9864 11.2821 17.8084C11.4807 17.1805 12.3853 17.2721 12.4276 18.114C12.4358 18.2768 12.4486 18.4404 12.4445 18.6034L12.4641 19.7478C12.4726 20.2253 12.5489 20.6754 12.5549 21.1522L12.5654 22.9379C12.5717 23.1655 12.6202 23.3887 12.6258 23.6173L12.6265 33.1905C12.6214 33.4267 12.5782 33.656 12.5706 33.8905L12.4375 36.8147L11.8834 41.5583C11.8261 42.1207 15.0113 42.8145 15.5233 42.9186C15.9653 43.0085 16.5367 43.0472 16.9877 43.0508L23.3634 43.0654L23.3644 13.4208C23.3644 13.1816 23.3922 12.9028 23.3499 12.6695L21.0235 13.7836C20.292 14.1028 20.0888 14.2302 19.4674 13.6751C18.5727 12.876 17.8118 11.6069 17.3216 10.5351L16.4273 8.1419ZM31.5493 8.14443C31.1385 9.50545 29.5631 13.4637 28.0782 14.0207L28.048 14.0326C27.6929 14.1636 27.4407 13.9365 27.1386 13.7999L24.797 12.7506C24.742 12.7231 24.6609 12.6631 24.6023 12.6562L24.6108 43.0529L28.9082 43.0518C29.7017 43.0514 30.5144 43.0908 31.3053 43.0427C32.6457 42.9612 33.8313 42.6739 35.0609 42.1246C35.4201 41.9642 35.8497 41.7889 36.1353 41.5125L35.3943 33.1905C35.3332 32.7904 35.3666 32.3407 35.3663 31.9352L35.3723 24.621C35.378 24.4593 35.4222 24.2981 35.4296 24.1343L35.4434 21.5744L35.5312 18.7583C35.5352 18.3019 35.4385 17.527 36.0589 17.4157C36.7418 17.2932 36.7384 17.8666 36.7345 18.3253L36.7205 21.8256C36.713 22.0072 36.6726 22.1849 36.6633 22.3658L36.5707 24.9711L36.5703 31.5556C36.5737 31.737 36.6068 31.915 36.6105 32.0963L36.6655 34.8229L37.2198 40.6288L37.3606 41.5194C37.4134 41.9173 37.4215 42.327 37.4837 42.7224C39.2321 42.8327 42.2106 42.3188 43.5191 41.2366L41.091 27.9907L39.4924 15.9608C39.2307 13.4633 38.7113 11.7098 36.5672 10.1047C35.8046 9.53385 34.9645 9.2752 34.0704 8.9886L31.8892 8.25829C31.7778 8.22257 31.6642 8.16501 31.5493 8.14443Z" fill="black"/>
</svg>
