<svg width="48" height="48" viewBox="0 0 48 48" fill="none" xmlns="http://www.w3.org/2000/svg">
<path d="M28.0722 41.6528L16.5593 41.6529C16.0842 41.6533 15.5802 41.6864 15.1082 41.6361C13.4658 41.4612 12.2641 40.1222 12.1029 38.5243C12.0817 38.3135 12.1401 37.272 12.0896 37.1691C11.6932 36.3625 11.5778 35.8095 11.6254 34.9332L11.7917 33.1392L11.9315 30.6324C11.9386 30.5003 11.9676 30.3746 11.9787 30.2441L12.0244 29.2678L9.6263 32.3575C8.8335 33.4469 8.01886 34.392 6.47287 34.1865C5.72255 34.0867 5.00405 33.6641 4.33212 33.3345L2.88037 32.6458C2.24091 32.2847 1.83636 31.6081 1.65281 30.9154C1.25682 29.4208 3.45954 23.3943 4.00609 21.9136L5.91567 17.1453L8.45953 11.5249C8.97567 10.4697 9.27244 9.82175 10.1713 8.99718C11.6722 7.62041 12.491 7.51288 14.3425 7.50636C15.9834 7.50064 16.6655 6.5046 17.6207 5.34252C18.2909 4.52726 18.8513 3.46855 19.9428 3.28851L27.3054 3.27931C28.7879 3.27759 28.8694 3.42315 29.826 4.63743L30.7434 5.77804C31.0646 6.19883 31.3606 6.75149 31.8114 7.04389L31.8459 7.06597C32.4018 7.43113 32.9079 7.50594 33.5473 7.50786L34.5592 7.51035C35.1571 7.51288 35.7232 7.62519 36.2812 7.85633C37.8104 8.48994 38.9722 9.93697 39.573 11.4486L41.9188 16.5638L44.2615 22.4268L45.1086 24.9221L45.8308 27.4032C45.872 27.6057 45.9472 27.8051 45.996 28.0066L46.3124 29.4488C46.7338 31.7155 45.6228 32.4624 43.8749 33.2828C42.3889 33.9802 40.9755 34.7967 39.4611 33.585C39.0689 33.2713 38.7955 32.8493 38.488 32.4608L36.3481 29.6949C36.2385 29.5649 36.1032 29.4496 36.0049 29.3137L35.9887 29.291C35.9933 29.6304 36.0386 29.9473 36.0607 30.2822L36.104 31.117C36.1178 31.2655 36.1499 31.4123 36.1599 31.5608L36.2905 33.7948C36.4093 35.3919 36.6468 35.8247 35.8648 37.2756C36.0433 39.0708 35.3832 40.9618 33.4763 41.5109C32.9923 41.6503 32.5591 41.6523 32.0614 41.6526L28.0722 41.6528ZM20.0584 4.76066C19.9962 4.76816 19.9423 4.76361 19.8866 4.79389C20.0539 5.21188 20.2607 5.62949 20.4586 6.03472L23.5825 12.6946C23.7294 13.0124 23.841 13.3443 24.0306 13.6406C24.0915 13.5889 24.1718 13.2836 24.2112 13.1922L25.2821 10.9134L27.8878 5.47836C27.9989 5.25782 28.1473 5.03394 28.2023 4.7923C27.8512 4.73558 27.4771 4.7593 27.122 4.75925L20.0584 4.76066ZM18.8923 6.15041L17.8476 7.37943C17.0825 8.22243 15.9663 8.93502 14.793 8.97833C12.7775 9.05277 12.3027 8.87605 10.6908 10.5816C10.2521 11.0458 10.0316 11.6457 9.75661 12.2136L7.04728 18.2297L4.71666 24.3277C4.16446 25.9518 3.63929 27.5761 3.24987 29.2477C3.09001 29.9339 2.79886 30.66 3.45795 31.2066C3.76551 31.4616 4.10135 31.5383 4.44166 31.7236C4.69069 31.2945 4.9372 30.8514 5.21442 30.4405C5.86603 29.4747 6.09984 29.199 6.52795 28.1193L8.26162 24.0225L10.4626 19.2031L11.0081 18.0996C11.164 17.7666 11.2663 17.3101 11.6579 17.1763C12.0347 17.0474 12.5158 17.1914 12.8542 17.3751C13.9913 17.9922 14.3822 19.058 14.4198 20.2679L22.6397 20.2661C22.8202 20.2661 23.0817 20.3001 23.2535 20.2549L23.2551 15.852C23.2547 15.6059 23.2847 15.4655 23.1581 15.25C23.0267 15.0264 22.9925 14.7308 22.8564 14.5206L15.52 14.5304C14.2934 14.5303 12.99 14.4034 12.0488 13.4954C11.7648 13.2213 11.4464 12.9343 11.3194 12.5503L11.3064 12.5133C11.2572 12.3661 11.257 12.2037 11.3122 12.0582L11.3221 12.031C11.4581 11.672 11.8722 11.5152 12.224 11.651C12.5108 11.7618 12.638 11.9825 12.8254 12.2039C13.4178 12.904 14.453 13.0624 15.3177 13.0692L22.1057 13.0492C22.0337 12.9791 22.0141 12.8393 21.9682 12.7488L18.8923 6.15041ZM29.199 6.21477L25.8932 13.073L32.411 13.0701C33.4085 13.0693 34.4616 12.9412 35.1934 12.1621C35.3023 12.0462 35.3849 11.9093 35.4997 11.7987C35.8832 11.4291 36.4814 11.5378 36.6755 12.0347L36.6892 12.0689C37.0456 13.0033 35.136 14.0586 34.4736 14.2988L33.8566 14.4698C33.6123 14.5403 33.3323 14.5261 33.0789 14.5287L25.5981 14.5296C25.0923 14.5295 25.2545 14.558 25.03 14.9865C24.9217 15.1932 24.7237 15.4426 24.7263 15.6793L24.728 20.2664L33.5581 20.2636C33.5717 19.3294 33.8162 18.5105 34.5056 17.8436L34.674 17.6903C35.0802 17.3242 35.711 17.0591 36.2577 17.148L36.2959 17.1535C36.7634 17.2266 36.8971 17.7426 37.0371 18.1191L37.5328 19.1728L38.4637 21.1871L41.1641 27.3981C41.1926 27.4936 41.2408 27.5833 41.2722 27.6793L41.5398 28.3825C41.6908 28.892 42.0218 29.286 42.3287 29.7066L43.0319 30.7496C43.1571 30.9525 43.3064 31.1751 43.3951 31.3959L43.5411 31.6998C43.5552 31.7316 43.5506 31.7209 43.5775 31.7539C44.9461 31.05 45.1571 30.8632 44.7888 29.3115L44.5638 28.3753C44.1036 26.5435 43.5213 24.7587 42.8759 22.9843L41.0976 18.3981L38.7552 13.1903C37.9974 11.5395 37.3408 9.72275 35.402 9.13077C34.5903 8.88299 33.7815 9.05596 32.9645 8.97144C30.8014 8.74766 30.3872 7.59379 29.199 6.21477ZM12.3058 18.7413C12.1485 19.0219 12.0365 19.3463 11.9001 19.6402L9.14151 25.6932L8.16731 27.9972C7.9207 28.5497 7.7678 29.1545 7.49166 29.6916C7.22644 30.2076 6.84356 30.6768 6.5183 31.1569L5.75259 32.3747C6.00862 32.5183 6.24525 32.616 6.53339 32.6628C7.65975 32.8175 8.09737 31.9812 8.67619 31.1866L9.99998 29.4058C10.6429 28.5702 11.3468 27.6585 12.2998 27.1535L12.8646 21.0647C12.9233 20.2628 13.1309 19.5896 12.5209 18.9322L12.3058 18.7413ZM35.682 18.7613L35.649 18.7942C34.8345 19.6015 35.0302 19.8498 35.1165 20.8835L35.6805 26.333C35.7792 27.5961 35.7587 26.9765 36.651 27.806C37.2492 28.3619 37.7595 29.0756 38.2552 29.7251L39.2603 31.0197C39.7728 31.6888 40.3444 32.8263 41.354 32.6855L41.5982 32.6428C41.7862 32.6035 42.1143 32.4708 42.247 32.3323C41.914 31.7178 41.5152 31.1323 41.1112 30.5628C40.5055 29.7088 40.4925 29.748 40.1273 28.7965L39.3593 26.8634L35.9546 19.2514C35.8838 19.0962 35.8194 18.892 35.7062 18.7656L35.682 18.7613ZM14.2947 21.7341L13.7168 27.7628L22.6991 27.7654L23.2544 27.7663L23.2557 22.1848C23.2556 22.0507 23.2801 21.8633 23.2437 21.735L14.2947 21.7341ZM24.7538 21.7301L24.729 27.7677L34.3241 27.7625C34.3772 27.6495 33.9247 23.849 33.872 23.3658C33.813 22.8249 33.7993 22.2689 33.7145 21.7315L24.7538 21.7301ZM13.5291 29.2308L13.4881 30.0501L13.164 34.2886C13.1264 34.6828 13.1003 35.0606 13.1013 35.457C13.1029 36.0716 13.3837 36.9253 14.0915 36.9625L22.8105 36.9645L23.2531 36.9753L23.2558 29.8342C23.2558 29.6503 23.2836 29.414 23.2472 29.2354L13.5291 29.2308ZM24.8442 29.2324L24.7514 29.2419C24.7112 29.389 24.7263 29.5687 24.726 29.7212L24.7242 35.7548C24.7242 36.1515 24.697 36.5711 24.7317 36.9653C25.0916 37.0067 25.4912 36.9665 25.8567 36.9656L31.9902 36.9654C32.872 36.965 33.7703 37.184 34.4667 36.6302C35.2201 35.8685 34.8927 34.7193 34.8156 33.7652L34.5292 29.9086C34.5186 29.6901 34.5365 29.4498 34.4979 29.2361L24.8442 29.2324ZM13.5739 38.3316C13.7573 40.1238 15.0392 40.1623 16.4673 40.1566L31.9525 40.1539C32.7828 40.153 33.2722 40.1738 33.9016 39.513C34.166 39.165 34.3879 38.7655 34.419 38.3192C33.8704 38.4495 33.3827 38.452 32.8208 38.4527L14.1999 38.4459C13.9819 38.4364 13.7858 38.3413 13.5739 38.3316Z" fill="black"/>
</svg>
