<svg width="48" height="48" viewBox="0 0 48 48" fill="none" xmlns="http://www.w3.org/2000/svg">
<path d="M24.0996 43.1639L12.7512 43.1621C11.6871 43.1619 10.5359 43.2707 10.0628 42.0356C9.91915 41.6606 9.90743 41.1796 9.84387 40.781L9.59468 39.2747C9.50946 38.7872 9.69307 38.7772 9.14238 38.7231L4.78765 38.3679C4.02761 38.3179 3.57842 38.193 3.24133 37.4056C3.06704 36.9986 3.21533 36.5951 3.27358 36.1846L4.24359 30.82C4.45937 29.6606 4.65822 28.4755 4.76838 27.3001L5.08249 22.6282L5.33946 20.6247C5.98146 16.9025 7.49037 13.8305 11.1328 12.1412L13.9864 10.9839C14.2831 10.8802 14.261 10.9378 14.2623 10.6158L14.266 9.52304C14.2674 9.23246 14.2726 9.02598 14.3495 8.74894C14.7683 7.24276 15.8031 6.8387 17.1357 6.53888L23.1797 5.06124C23.4358 4.99482 23.6748 4.90557 23.9406 4.88574C24.1364 4.89727 24.3353 4.95652 24.5251 5.00349L30.5742 6.46951C31.8652 6.78624 32.9399 7.06524 33.5291 8.4324C33.875 9.2348 33.6714 10.0995 33.7469 10.9366L36.3325 11.8982C38.703 12.8641 40.5683 14.5342 41.5441 16.915C41.8265 17.6038 42.1203 18.3697 42.2682 19.1039L42.5164 20.3318C42.6304 20.9446 42.6878 21.5765 42.7635 22.195L43.418 28.7103L44.1474 33.0012C44.2824 33.7539 44.4808 34.5013 44.5704 35.2617C44.5973 35.4901 44.6108 35.7267 44.6489 35.9529L44.7261 36.5557C44.9209 38.0072 44.4322 38.2794 43.107 38.3502L38.5611 38.6746C38.5208 38.8646 38.5344 39.0593 38.5161 39.2517L38.3554 40.6154C38.3004 41.0423 38.3055 41.394 38.1566 41.8122L38.1263 41.8943C37.8424 42.5825 37.2123 43.12 36.4489 43.1559L24.0996 43.1639ZM23.9721 6.4973L20.0104 7.52091C20.4189 7.66051 20.8377 7.75974 21.2547 7.87065L23.6764 8.5059C23.8014 8.54251 23.9258 8.61545 24.0521 8.55212L24.0799 8.53651C24.6971 8.22005 25.4519 8.18945 26.1211 8.03645L27.5156 7.68601C27.6896 7.64073 27.861 7.5841 28.0383 7.5533L24.8384 6.71223C24.7366 6.68893 24.0074 6.53424 23.9721 6.4973ZM30.9692 8.25282L27.3609 9.43679L26.0763 9.73388C25.2942 9.87709 24.6666 9.85965 24.2323 10.6701L24.123 10.9007C24.0627 11.0358 24.0114 11.2317 24.0048 11.3786L24.0024 41.549L36.5339 41.553C36.8834 40.3231 36.9492 39.0096 37.0788 37.7437L37.5123 31.8283L37.5228 22.6521L37.5241 19.5549C37.5245 19.0392 37.4907 18.497 37.5359 17.985C37.6039 17.2152 38.4878 16.9784 38.9894 17.639L39.0127 17.6686C39.0699 17.7429 39.0915 17.8126 39.0942 17.906L39.09 31.7628C39.0842 32.3418 39.0205 32.9188 38.9901 33.4981L38.7561 36.5074C38.742 36.6998 38.7138 36.8851 38.734 37.0782L43.1733 36.7605C43.1359 36.3186 43.0969 35.8864 43.0247 35.4482L41.9308 29.4138L41.4588 24.6493C41.1786 21.2079 40.8468 17.0709 38.0114 14.6838C37.1722 13.9772 36.1288 13.5696 35.1244 13.1611L33.9078 12.6479C33.388 12.4343 32.308 12.1793 32.2524 11.476C32.2054 10.8811 32.3381 9.82955 32.2325 9.32785C32.1359 8.86927 31.5258 8.09752 30.9692 8.25282ZM16.7264 8.27612C15.8787 8.58127 15.754 9.19266 15.7621 10.0079L15.7713 11.0138C15.7737 12.0063 15.4117 12.0867 14.5316 12.4796L12.6903 13.2442C12.1834 13.4557 11.6752 13.6623 11.1919 13.9252C8.85237 15.1979 7.5454 17.4859 7.03282 20.0388L4.76819 36.7359L8.81702 37.1083C8.91677 37.119 9.22624 37.1704 9.30377 37.1244C9.28043 36.5299 9.18391 35.9319 9.13357 35.3391L9.07554 34.007C9.06049 33.8056 9.01835 33.6099 9.01113 33.4071L8.98788 22.1979C8.97597 22.0026 8.94307 21.8124 8.93773 21.6155L8.92835 18.2608C8.92854 18.1265 8.91719 17.9791 8.93177 17.8463C9.01474 17.0893 10.2833 17.0783 10.4619 17.8401C10.495 17.9812 10.4856 18.1461 10.4865 18.2912L10.4914 21.7614L10.4958 30.5027L10.5507 32.8309L10.731 35.45C10.8607 36.9524 11.0102 38.4565 11.2981 39.9372L11.5041 41.1358C11.5292 41.2772 11.5125 41.4215 11.5857 41.5494L22.5024 41.5511C22.5288 41.2173 22.5175 40.8794 22.5175 40.5446L22.5167 11.5831C22.5164 10.975 22.5021 10.5609 22.8092 10.0099L17.621 8.49798C17.3506 8.41234 17.0165 8.24588 16.7264 8.27612Z" fill="black"/>
<path d="M20.3792 12.6348C19.9849 12.6478 19.7088 12.4178 19.3594 12.2601L17.744 11.4954C17.4753 11.3632 17.1887 11.2385 16.9336 11.0817C16.403 10.7556 16.5528 9.95692 17.2401 9.80078C17.7496 9.80069 18.5475 10.3326 19.0196 10.542L20.0737 11.0078C20.3939 11.1546 20.7748 11.2854 20.9149 11.641C21.093 12.0931 20.8181 12.4933 20.3792 12.6348Z" fill="black"/>
<path d="M27.8668 12.5484C27.2196 12.5323 26.8068 11.6302 27.4427 11.2701C27.8134 11.0602 28.2471 10.9082 28.6357 10.7273L30.0209 10.064C30.2275 9.97158 30.3998 9.8685 30.6273 9.82669C31.1438 9.76997 31.4548 10.2691 31.2839 10.7295L31.2379 10.8475C31.0891 11.1666 30.6721 11.3052 30.375 11.4383L29.6436 11.7775C29.1363 12.0153 28.4164 12.4972 27.8668 12.5484Z" fill="black"/>
<path d="M29.2304 21.994C28.2848 21.9354 28.4867 21.0274 28.55 20.4498C28.6943 19.132 28.4899 17.7467 28.2036 16.4633L28.0042 15.6137C27.835 14.9492 27.6947 14.2013 28.5876 14.0938C29.5877 14.1333 29.776 16.3464 29.891 17.1105L29.994 17.8931C30.008 17.993 30.0032 18.1015 30.0301 18.1985L30.0558 18.2928C30.1086 18.6181 30.0878 18.9899 30.0897 19.3201C30.0942 20.1178 30.2871 21.851 29.2304 21.994Z" fill="black"/>
</svg>
