<svg width="48" height="48" viewBox="0 0 48 48" fill="none" xmlns="http://www.w3.org/2000/svg">
<path d="M22.9548 23.4995L22.039 29.7729C22.0123 29.9827 21.9729 30.201 21.9637 30.4118L21.9534 31.891C21.9354 32.4268 21.8716 32.9713 21.8005 33.5027L21.0462 37.969L19.233 44.9027C19.1593 45.2479 19.193 45.5682 18.8337 45.7691L18.8082 45.783C18.6358 45.88 18.4086 45.8394 18.2188 45.8398L15.9003 45.8435C14.7409 45.8443 14.6623 45.8236 14.6052 44.5377C14.5971 44.3564 14.5542 44.1779 14.546 43.995L14.4342 39.5157C14.4334 38.8335 14.4078 38.1383 14.4742 37.4589L15.129 32.7356C15.1549 32.4537 15.1974 32.1753 15.2052 31.8917L15.1936 28.9506C15.1797 28.6481 15.1191 28.3515 15.1054 28.0511L15.0061 25.3481L14.9947 22.8285C14.9902 22.59 14.9352 22.3624 14.9312 22.1238L14.9351 15.7067C14.9408 15.5025 14.986 15.3052 14.9917 15.1024L15.0101 13.4035C15.0183 13.2194 15.055 13.0422 15.0697 12.8596L15.308 9.30244L15.5477 7.22972C15.6875 6.05002 15.8576 4.89235 16.1466 3.73857L16.3838 2.71847C16.7341 1.14631 17.1529 1.68265 18.3681 2.00168L19.6167 2.34916C22.7311 3.19716 24.7237 3.71785 27.9049 2.47527L29.5777 1.78055C29.9196 1.63719 30.2917 1.46134 30.6547 1.38857C30.7344 1.38247 30.8042 1.38247 30.883 1.39785L30.9136 1.40409C31.1648 1.45162 31.3327 1.66188 31.3957 1.90276L31.6887 3.012C31.7728 3.24696 31.829 3.54311 31.7496 3.78746C31.6593 4.06545 31.7738 4.19964 31.8617 4.46691L32.07 5.1555C32.2153 5.59154 32.2626 6.15858 32.3433 6.62138L32.6303 8.86697L32.9114 12.7387C32.9208 12.9032 32.9542 13.0633 32.9631 13.2293L33.0877 15.7268L33.0891 25.438C33.0851 25.6672 33.0289 25.8863 33.0246 26.1122L32.975 28.4534C32.957 29.3787 32.8822 30.221 32.8804 31.1488L32.8814 32.5959C32.8912 32.8985 32.9302 33.1933 32.9572 33.4937L33.5127 37.7202C33.5858 38.3764 33.5628 39.0413 33.5622 39.7006L33.4478 43.8284C33.4223 44.3168 33.4629 44.8089 33.3754 45.2933L33.3589 45.3789C33.3119 45.5462 33.1574 45.744 32.993 45.8127C32.8556 45.8701 29.3126 45.8589 29.2027 45.8056C28.7758 45.5987 28.7809 45.1232 28.6789 44.7209L27.6788 40.9808L26.7423 36.9729C26.5429 35.9207 26.3729 34.841 26.2809 33.7737L26.1851 32.4729C26.1548 31.5323 26.0811 31.0943 25.9097 30.1548L25.0625 24.5032L24.5035 19.6119C24.353 18.5284 24.3476 17.3972 23.9715 16.3581C23.8141 16.8639 23.7515 17.4082 23.6749 17.9307L22.9548 23.4995ZM30.2931 2.89482C29.499 3.12735 28.7495 3.50367 27.9717 3.78576C25.4817 4.68872 23.5206 4.63753 21.0261 4.01993L18.8199 3.41992C18.4038 3.2972 17.9442 3.10074 17.5147 3.04859L17.4641 3.73662L18.1002 3.94678L22.8511 5.55586C24.3537 6.02025 24.4297 5.91347 25.8997 5.40558C26.8234 5.08646 27.7667 4.78955 28.6526 4.37326L30.5061 3.42023C30.4699 3.24364 30.4284 3.0562 30.3598 2.8895L30.2931 2.89482ZM30.6815 4.78819C29.4749 5.45082 28.2114 5.91465 26.925 6.38986C25.9237 6.75975 24.6425 7.37124 23.5471 7.05807L17.1493 4.97246L16.9741 5.94966L16.4078 11.0511L16.3753 12.0401C16.3624 12.2503 16.3162 12.4439 16.3108 12.6571C16.2992 13.1108 16.3556 13.6339 16.259 14.074C16.1632 14.5107 16.2013 14.9978 16.1992 15.4444L16.2032 23.0858L16.3124 26.4378C16.317 26.7286 16.378 27.0131 16.3861 27.3036L16.4041 29.4729C16.4127 29.8236 16.4735 30.17 16.4757 30.5225L16.409 32.1336C16.3902 32.483 16.3945 32.8316 16.357 33.1802L15.7993 37.1187C15.7154 37.8035 15.6579 38.4671 15.6582 39.1559L15.7392 43.0102L15.8165 43.8136C15.8292 44.0651 15.7986 44.3317 15.8402 44.5793C16.0936 44.5937 17.9154 44.6424 18.027 44.5851C18.1593 43.9438 18.3559 43.3164 18.5384 42.6878L19.9298 37.1745C20.1854 35.9752 20.3531 34.7354 20.5169 33.5205L20.6241 32.637C20.6638 32.2458 20.7193 31.8685 20.7194 31.475C20.7194 30.9804 20.6682 30.4282 20.7379 29.9402L22.0477 20.6776L22.2128 19.3982C22.3083 18.5819 22.8578 13.6217 24.105 13.8061C24.4537 13.8577 24.5547 14.1546 24.6684 14.4347L25.1422 15.763C25.4415 16.5835 25.6099 17.9921 25.6943 18.857L26.2986 24.2464C26.3468 24.5909 26.3834 24.9382 26.426 25.2835L27.2925 30.7488C27.444 31.5888 27.3976 32.0214 27.4538 32.8347L27.6707 34.9494L27.985 36.7386C28.1031 37.32 28.1794 37.9291 28.3475 38.4983L29.9251 44.5891L32.164 44.5996L32.2674 42.4711L32.2792 40.4183C32.2832 40.2729 32.3074 40.1296 32.3147 39.9847C32.4064 38.1817 32.035 36.4224 31.8075 34.6421L31.6802 33.1247C31.6297 32.4119 31.5856 31.7019 31.6241 30.9866L31.6948 30.0796L31.7996 25.8753C31.805 25.7739 31.8321 25.6759 31.8394 25.5744L31.8611 16.1918C31.8547 15.9321 31.8111 15.6808 31.8016 15.4229L31.7869 14.2446L31.5234 10.3597L31.2452 7.73832C31.1177 6.75291 31.0022 5.73366 30.6815 4.78819Z" fill="black"/>
</svg>
