<svg width="48" height="48" viewBox="0 0 48 48" fill="none" xmlns="http://www.w3.org/2000/svg">
<path d="M38.8391 14.8378L39.1736 15.9286C39.3207 16.6604 39.6164 17.3758 39.8212 18.0936L40.4828 20.2259C40.5284 20.4325 40.621 20.6314 40.6712 20.8383L41.7017 24.397C41.7107 24.4398 41.7177 24.4779 41.7324 24.5192L42.8609 28.3094C42.9241 28.4716 42.9785 28.6815 43.0124 28.8514L43.5767 30.794C43.6049 30.9356 43.6532 31.1272 43.7041 31.2623L44.0489 32.4866C44.1243 32.8633 44.3232 33.4705 44.4378 33.8553C44.5721 34.3067 44.6775 34.7637 44.8128 35.2147L45.2816 36.9491C45.3367 37.1607 45.4127 37.3754 45.4523 37.5902C45.5982 38.3831 45.9319 38.9569 45.9375 39.8748C45.9472 41.4857 45.1016 42.8959 43.5671 43.4963C43.3496 43.5815 43.1275 43.6243 42.9078 43.6973L42.8608 43.7124C41.2967 44.1351 39.3469 43.0273 38.6077 41.6347C38.3462 41.1421 38.2207 40.6047 38.0614 40.0745L35.1994 30.1327C35.1489 30.5284 35.2642 30.9414 35.3281 31.3309L35.4849 32.4491C35.5101 32.6244 35.5104 32.8017 35.532 32.9764L35.9935 37.5569C36.0012 39.3626 35.0222 41.1035 33.4803 42.0257C32.1682 42.8105 30.9636 42.9977 29.4866 42.9946L26.6567 42.9207C26.4996 42.9108 26.3461 42.8703 26.1913 42.862L21.4452 42.9246L18.6475 42.9876L17.7069 42.9327C16.8439 42.8683 15.9794 42.7566 15.178 42.4089C13.4639 41.6652 12.1295 39.9113 11.94 38.0489C11.8959 37.6155 11.9444 37.2125 11.9863 36.785L12.3989 32.7772C12.4658 32.1633 12.6012 31.5327 12.6086 30.916C12.5505 30.9935 12.5237 31.1609 12.4929 31.2568L10.0096 39.7264C9.89931 40.0912 9.75235 40.4526 9.66109 40.8218C8.54762 45.3255 2.01028 44.3489 1.98847 39.9394C1.98755 39.7523 1.97929 39.5602 2.02465 39.3776L9.25876 14.7676C9.86959 13.0231 10.8275 11.3893 12.616 10.6392C13.9652 10.0733 15.5986 9.91967 16.8927 9.29768L17.0046 8.26156C17.0581 7.92026 17.2856 7.43454 17.2058 7.1045C16.3271 3.47117 25.7651 3.86464 28.2128 4.48205C29.4142 4.78507 31.0404 5.40453 30.9003 6.92154C30.8669 7.28468 30.7874 7.4862 30.9054 7.85253C31.0492 8.29845 30.9528 8.7717 31.0261 9.22709C31.1064 9.28522 31.2203 9.31545 31.3136 9.34972L33.5624 10.0305C33.9572 10.1414 34.3676 10.2247 34.7563 10.3535C36.563 10.9518 37.779 12.3176 38.5306 14.0401C38.6416 14.2947 38.7791 14.5675 38.8391 14.8378ZM23.5785 5.63492C22.0045 5.63989 20.4929 5.78839 19.0414 6.41586L19.1791 6.49451C19.7972 6.85582 20.847 7.02879 21.5507 7.11936L22.1454 7.17312C22.9347 7.25933 23.7279 7.31797 24.5232 7.27306C26.0352 7.2289 27.6711 7.0512 29.0836 6.47867C27.554 5.69759 25.3009 5.5415 23.5785 5.63492ZM18.5595 7.98031L18.4708 8.90609C18.4057 9.59933 18.3723 10.3023 17.6717 10.6918L17.6345 10.7128C17.3437 10.8723 16.9875 10.9228 16.6712 11.0186L14.5761 11.6166C13.7893 11.8471 12.8982 12.1471 12.2517 12.6767L13.6509 18.3168L14.3919 21.4334C14.6917 22.9162 14.5127 24.4345 14.4435 25.9292L14.4185 27.4755L13.5612 36.9466C13.4478 38.0817 13.6453 39.2033 14.5065 40.0395L14.5374 40.0247C14.8578 39.8734 15.2288 39.8254 15.5676 39.7266C16.6525 39.4237 17.8051 39.2414 18.9256 39.1368L22.4392 39.0141C22.5537 39.014 23.2218 39.0287 23.2541 38.9828C23.2555 36.4898 23.2872 8.87703 23.2459 8.79368C22.1442 8.7522 21.0673 8.65283 19.9942 8.39051L19.0181 8.11957C18.9069 8.08343 18.6572 7.95181 18.5595 7.98031ZM29.4317 8.01753C28.4176 8.34692 27.379 8.57665 26.3202 8.68803L25.2565 8.77939C25.1054 8.78975 24.9054 8.76922 24.7655 8.81323C24.7086 9.46053 24.7516 10.1437 24.7514 10.7944L24.7519 37.9012C24.752 38.2527 24.7102 38.6677 24.7712 39.0111L28.7928 39.0261C29.9964 39.0911 31.1853 39.3173 32.3553 39.5944L33.4638 39.9809C34.5484 38.8193 34.4926 37.7989 34.3372 36.3397L33.9612 32.7069L33.728 29.576C33.7171 29.4037 33.6795 29.2387 33.6708 29.0647L33.6491 27.732C33.6428 27.452 33.5974 27.1805 33.5855 26.903L33.4836 23.1968C33.4886 22.7426 33.5234 22.3078 33.5926 21.8595L35.015 15.9446L35.6457 13.1239C35.6784 12.9385 35.7715 12.8117 35.6604 12.6455C35.2232 11.9919 34.1048 11.797 33.4021 11.606L31.6844 11.1172C30.7621 10.8725 29.786 10.725 29.56 9.62679C29.4939 9.30561 29.4753 8.11564 29.4317 8.01753ZM11.1312 14.2136C10.8615 14.7194 10.6741 15.2812 10.4894 15.8229L10.2278 16.5551L3.66764 39.536C3.41997 40.6397 4.36461 41.7767 5.4167 41.997C7.40176 42.253 7.90815 41.411 8.39757 39.6617L9.99784 34.3241L12.5557 25.228C13.1333 22.9565 12.7567 21.466 12.2253 19.2611L11.2731 14.9412C11.2301 14.7132 11.2126 14.4289 11.1312 14.2136ZM36.9981 14.3994C36.8111 15.3717 36.5388 16.3191 36.2928 17.2768L35.3164 21.1991C35.1471 21.8804 35.0124 22.5356 35.1937 23.2399L36.1029 27.2042C36.1105 27.2418 36.1217 27.2746 36.1335 27.3108L36.7841 29.7667C36.8978 30.1193 36.9584 30.4953 37.0789 30.8436L38.916 37.4639C38.9238 37.4964 38.9344 37.5254 38.9456 37.5567L39.7043 40.1483C40.2719 41.7184 40.9148 42.2781 42.5749 42.2045C43.7027 42.0433 44.6096 40.9513 44.4472 39.8016C44.3967 39.4442 44.2866 39.0852 44.1866 38.7394L41.9774 30.9318L37.6757 16.1966L36.9981 14.3994ZM22.2466 40.5757L19.4049 40.679C18.3534 40.7295 17.2547 40.9029 16.2434 41.1807C17.3436 41.3562 17.9181 41.3767 19.0441 41.3765L21.2673 41.3565C21.5477 41.3479 21.8199 41.2978 22.098 41.2858L24.0258 41.2738C24.6924 41.2748 25.3754 41.2534 26.0381 41.3293L27.878 41.3782L29.5794 41.4593C30.4018 41.4591 31.2471 41.4107 32.0197 41.0999C31.3214 41.0071 30.6303 40.8491 29.9296 40.7813L26.9006 40.5848L22.2466 40.5757Z" fill="black"/>
</svg>
