<svg width="48" height="48" viewBox="0 0 48 48" fill="none" xmlns="http://www.w3.org/2000/svg">
<path d="M24.7415 28.7468L24.038 22.6924L21.6363 42.1289C21.5978 42.426 21.5818 42.7388 21.3223 42.9289C20.5428 43.4999 19.4456 43.3347 18.5462 43.3056L15.9023 43.1359C15.076 43.0516 14.2547 42.9716 13.4355 42.827L12.6137 42.6446C11.5796 42.3856 11.926 41.6096 11.9891 40.7361L12.2212 37.1533C12.2891 36.0753 12.3808 34.9941 12.4557 33.9152L12.4947 33.0322C12.5042 32.859 12.5375 32.6955 12.548 32.5249L12.5958 31.535C12.6082 31.3622 12.6409 31.1949 12.6506 31.0205L12.7398 29.6399C12.7884 28.9634 12.8178 28.2473 12.8596 27.5634L13.2096 22.1198L13.2019 17.4262C13.1825 16.8716 13.128 16.4058 13.1265 15.8401L13.1192 14.0589C13.1148 13.8383 13.0707 13.6254 13.0631 13.4069L12.9835 10.9704L12.9854 8.24902C12.987 8.00926 13.0255 7.70495 12.9612 7.47657C12.9363 7.38821 12.9127 7.29924 12.9082 7.20704L12.8992 6.51216C12.8886 4.93843 13.6559 4.95535 15.1023 4.78402L17.0798 4.625L31.2234 4.62772C31.3869 4.63549 31.5481 4.66235 31.7109 4.67642L32.7976 4.7709C33.3948 4.84084 34.6406 4.89545 34.9584 5.52029L35.042 5.72106C35.1788 6.22107 35.0199 6.97196 35.0144 7.50052L35.0389 11.7179C35.0349 12.0214 34.9595 12.3176 34.9542 12.6263L34.9526 22.2709C34.9577 22.722 35.025 23.1664 35.0363 23.6188L35.0493 25.7227C35.0586 25.9592 35.1075 26.1908 35.1191 26.4259L35.2597 29.5427C35.2706 29.6844 35.3011 29.823 35.3103 29.9653L36.0073 40.6691C36.0353 40.9951 36.217 41.9296 36.0638 42.2008L36.0005 42.3031C35.5717 42.8775 32.5698 43.2435 31.6992 43.2846L30.7383 43.3115C29.6259 43.3653 28.4655 43.4491 27.3729 43.1845C26.6112 43 26.5101 42.8538 26.415 42.1524L24.7415 28.7468ZM16.397 5.88788C15.8321 5.9206 14.7071 6.03432 14.1404 6.17059L14.1479 6.75273C14.4151 6.84741 14.7418 6.8574 15.0235 6.90235L17.2675 7.25209C18.5699 7.45548 19.8791 7.7543 21.1981 7.8256L21.2879 7.72327C21.5172 7.46874 21.8881 7.4956 22.1729 7.62929C22.2898 7.68413 25.66 7.69426 25.824 7.63027C26.4641 7.38062 26.5544 7.71601 27.0937 7.6862L30.8646 7.30473L33.0586 6.96179C33.8009 6.84915 33.9212 7.00501 33.8882 6.17541C32.357 5.90134 31.4566 5.88605 29.9223 5.88634L16.397 5.88788ZM14.1865 7.97466C14.1168 8.5576 14.1253 10.3292 14.1857 10.9174C14.6291 10.7634 15.0484 10.4307 15.3636 10.0874C15.8191 9.56668 16.1001 9.02124 16.274 8.35613L14.1865 7.97466ZM33.8035 8.09959L31.7501 8.42785L31.9742 9.04843C32.1105 9.43295 32.392 9.79018 32.6554 10.0938C32.9919 10.4397 33.3933 10.727 33.8385 10.9162L33.8239 8.9438C33.8237 8.67568 33.8533 8.36171 33.8035 8.09959ZM17.4819 8.54293C17.2761 9.31707 16.9993 10.0817 16.4837 10.7091C15.723 11.6346 15.2064 11.7096 14.2813 12.1996L14.3419 15.3109C14.3793 16.0423 14.4277 16.7701 14.4293 17.5035L14.4232 22.7762L14.1322 27.1888C14.1196 27.3624 14.0813 27.5313 14.0661 27.7052L13.7299 33.3871L13.5928 34.8867L13.1499 41.5382L18.2651 42.0961C18.8084 42.1521 19.5826 42.2008 20.0976 42.1106L20.125 42.1064C20.2172 42.0909 20.373 42.0394 20.4453 41.9832L22.0649 28.2462L23.3387 18.8257C23.3906 18.4659 23.4286 18.083 23.8711 17.9936L23.9 17.9872C24.1917 17.9287 24.475 18.1119 24.5878 18.375L24.6021 18.4079C24.6516 18.5455 24.6498 18.6944 24.6663 18.8376L25.8757 28.0547C25.9843 28.7683 26.1001 29.4957 26.1573 30.2157L26.5783 33.4453C26.6483 33.8701 26.6771 34.3052 26.728 34.7324L26.8746 35.918C26.9193 36.3312 26.9528 36.7609 27.0348 37.1682L27.626 41.9344C28.6215 42.2712 28.9834 42.0343 29.8269 42.0201L32.205 42.0023C33.0175 41.9573 34.009 41.8331 34.7531 41.4941L34.8369 41.4049C34.7911 41.0839 34.8103 40.7532 34.7955 40.4297L34.0626 29.8505L34.0162 28.5208C34.009 28.3932 33.9824 28.2681 33.9742 28.1405L33.7645 21.5933C33.7596 21.309 33.7125 21.0294 33.711 20.7425L33.7123 14.7422C33.717 14.543 33.7542 14.3449 33.7617 14.1448L33.7755 12.7852C33.7802 12.6143 33.8312 12.376 33.8057 12.2151C31.9592 11.7141 31.0245 10.3146 30.5629 8.58718L30.5377 8.59299C30.0762 8.69527 29.5643 8.70385 29.0929 8.74641L28.1848 8.82099C27.7547 8.86135 27.2748 8.84171 26.9028 8.88915L26.8863 10.9011C26.8585 11.6067 26.7352 12.5801 26.5387 13.2335C25.9624 15.1495 24.2078 16.2515 22.2706 16.4067C21.0716 16.5027 21.1418 16.1618 21.1408 15.1874L21.1546 9.02373C20.5249 9.00324 19.9136 8.91188 19.291 8.82371L17.4819 8.54293ZM22.8468 8.88568C22.7156 8.89726 22.542 8.88155 22.4171 8.9138C22.3787 9.18859 22.3969 9.47691 22.3968 9.75446L22.4061 15.1608C23.11 15.0273 23.7837 14.8278 24.3547 14.3751C25.2877 13.5773 25.5327 12.4944 25.6285 11.3199L25.6638 8.8884L22.8468 8.88568Z" fill="black"/>
</svg>
