<svg width="48" height="48" viewBox="0 0 48 48" fill="none" xmlns="http://www.w3.org/2000/svg">
<path d="M32.5834 39.7415L29.635 40.1094C29.5962 40.111 29.498 40.2916 29.4661 40.3343C28.8956 41.0952 22.7757 40.9473 21.8435 40.8905C21.1685 40.8494 18.902 40.8535 18.508 40.273C18.3627 40.0589 18.4095 40.0893 18.125 40.0488L13.8789 39.4904C11.4743 39.1014 6.13194 38.2068 5.55303 35.3271L5.49758 35.0474C5.31261 34.2157 5.72431 33.5302 5.96464 32.7681L9.19606 22.351L11.6719 15.7075L13.1527 12.3722C13.305 12.0903 13.4747 11.9593 13.4753 11.6252L13.4764 8.75428C13.4765 8.08833 13.2634 7.22156 14.1616 7.08487L33.3147 7.07812C34.8815 7.07888 34.5992 7.61339 34.6006 8.853L34.6084 11.6921C34.6224 12.0145 35.0353 12.7797 35.1921 13.1027L37.5909 18.9025L40.0107 25.9572L41.6075 31.312C41.7011 31.7607 41.9593 32.7177 42.1322 33.1215L42.4013 33.7909C42.5229 34.0035 42.4902 34.9673 42.423 35.2033C42.1544 36.1462 41.6711 36.7611 40.8128 37.2511L40.0847 37.6233C39.8893 37.7278 39.7235 37.8709 39.5435 37.9976C38.9592 38.4089 38.2773 38.5802 37.597 38.7614L34.1248 39.4712C33.6118 39.561 33.1007 39.6784 32.5834 39.7415ZM14.7151 8.41791C14.6523 9.09783 14.6932 9.79941 14.6942 10.4722L14.699 11.2473C14.7015 11.361 14.6904 11.5049 14.724 11.6123L16.9033 11.7345C16.6319 10.4569 16.2748 9.90253 16.5827 8.42044L14.7151 8.41791ZM17.9112 8.42166C17.7726 8.8508 17.6965 9.29123 17.7505 9.73847C17.7833 10.01 18.0935 11.5684 18.3244 11.7288L29.6022 11.7324C29.6684 11.6305 29.7296 11.5319 29.7805 11.421C30.1495 10.6297 30.4403 9.39745 30.1185 8.53209L30.0757 8.424L17.9112 8.42166ZM31.3854 8.41941L31.4137 8.55984C31.4192 8.59509 31.426 8.61811 31.4363 8.65111C31.6178 9.23466 31.3975 11.1671 31.083 11.7225L32.7947 11.6438L33.2172 11.624L33.2106 8.42348L31.3854 8.41941ZM14.3213 12.8557L12.2563 17.7892L11.3435 20.1564L7.07652 33.3869C6.9163 33.9014 6.61348 34.392 6.76527 34.9456L6.81059 35.1045C7.00883 35.7922 7.80631 36.3479 8.42211 36.6195C8.70603 35.8888 9.10208 35.2105 9.45823 34.514L10.4682 32.36C11.0982 30.9373 11.6437 29.4662 12.1452 27.9937L13.7606 22.4436L14.1425 20.6644C14.2296 20.241 14.2843 19.2373 15.0724 19.5599C15.2313 19.625 15.3407 19.7111 15.4218 19.8635L15.4354 19.8884C15.5927 20.2088 15.3554 21.0568 15.2894 21.391C14.8757 23.4867 14.2876 25.558 13.6295 27.5893L12.9468 29.6621L11.2462 33.8455L10.3656 35.6214C10.1063 36.1272 9.82222 36.616 9.65712 37.1628C10.8522 37.6378 12.1479 37.8764 13.4096 38.0978L18.351 38.7703L19.0282 33.9728L20.0593 25.1252L20.0922 24.4682C20.1082 24.2942 20.1426 24.1219 20.1519 23.9477L20.2597 21.8687C20.276 21.3967 20.1492 20.2531 20.358 19.89L20.3745 19.8605C20.6296 19.4132 21.4073 19.4563 21.5233 19.9256C21.6792 20.5565 21.4888 21.6443 21.4622 22.3383L21.4385 23.9253L20.4045 33.2556L19.6442 38.8933C19.6236 39.0532 19.5894 39.203 19.5888 39.3652C20.0131 39.4452 20.4304 39.4699 20.8592 39.506L24.1441 39.6076C24.84 39.6068 25.5509 39.6341 26.2446 39.5916L28.4375 39.3527C28.4577 39.2957 28.4393 39.2282 28.4305 39.1686L27.806 34.886L26.9426 28.3419L26.5549 23.8871L26.4492 20.5618C26.4435 20.1449 26.4035 19.7333 26.8826 19.5725L26.9088 19.5634C27.0546 19.5159 27.2141 19.5549 27.3455 19.6258L27.4523 19.6957C27.7775 19.9289 27.7267 20.4976 27.7278 20.8396L27.7406 21.9025C27.7508 22.1397 27.8073 22.3675 27.8171 22.6042L27.8247 23.5981C27.8351 23.8919 27.885 24.1749 27.9061 24.465L28.789 32.7658L29.4846 37.5471C29.5523 37.9577 29.5466 38.3972 29.6603 38.8005L32.0857 38.4618C33.6032 38.2532 37.0531 37.8046 38.4019 37.0807L36.1825 32.4857C34.7795 29.214 33.7399 25.8058 32.8982 22.3514C32.7493 21.7406 32.5969 21.1247 32.5171 20.5006C32.3637 19.3013 33.3882 19.3117 33.6592 19.885L33.6856 19.9572C33.7319 20.0906 33.7459 20.2191 33.7811 20.3536L34.3471 22.9585L35.1024 25.686L36.3311 29.3205L37.9028 33.0912L39.5627 36.4191C40.2015 36.1183 40.8572 35.7855 41.115 35.0842C41.3642 34.4064 41.0105 33.8415 40.8156 33.2073L38.79 26.2684L36.2084 19.0133L34.0227 13.6437C33.9133 13.3951 33.8139 13.1348 33.6911 12.8931L32.9787 12.9245C32.4915 12.9588 32.0083 13.0215 31.5216 13.0409L16.1787 13.0477C15.651 13.0311 14.7528 12.7844 14.3213 12.8557Z" fill="black"/>
</svg>
