<svg width="48" height="48" viewBox="0 0 48 48" fill="none" xmlns="http://www.w3.org/2000/svg">
<path d="M15.7519 41.5043C13.7157 40.9442 12.1686 38.9658 12.0722 36.8668C12.0478 36.3367 12.1294 35.8383 12.2311 35.3211L13.2168 30.9605L13.7388 28.0098C13.7922 27.6675 13.7865 27.316 13.7901 26.9703C13.6606 27.4158 13.4581 27.8527 13.2757 28.2787L10.2239 35.1324L8.93581 38.3316C8.65948 39.1178 8.47784 39.9117 8.34706 40.734C8.25495 41.3129 8.3172 42.2643 7.63203 42.4839L7.52379 42.5173C7.20823 42.5991 6.78809 42.4813 6.47792 42.4006C4.74898 41.9508 2.42532 40.8237 1.13025 39.5212C0.896722 39.2863 0.672955 39.0514 0.801041 38.7021C0.978641 38.2178 1.23298 37.7427 1.43697 37.2667L3.50362 32.4483L8.44704 19.2504L9.73901 14.8337L10.0976 13.1789C10.1979 12.6384 10.2792 12.0913 10.4337 11.5627C11.0289 9.52752 12.5434 7.85708 14.4968 7.02866C15.6088 6.557 16.8507 6.33964 18.0358 6.12847C18.795 5.99314 18.9713 6.8127 19.2673 7.30039C20.2852 8.97748 22.2957 9.29497 24.0919 9.29C24.3877 9.28916 24.7196 9.31503 25.008 9.25531L25.5714 9.17942C26.7221 8.99623 27.9578 8.49481 28.6204 7.48789C29.0088 6.89764 29.1342 6.13184 29.9485 6.00781C30.2113 6.02506 30.4752 6.13236 30.7349 6.18439C31.3319 6.30406 31.9481 6.41169 32.5316 6.58573C34.9562 7.30902 36.9336 9.23469 37.6265 11.6864C37.8298 12.4059 37.9098 13.1559 38.0626 13.8863L38.2621 14.7669C38.3692 15.1875 38.5127 15.6095 38.6072 16.0309L40.1052 20.8473L40.9705 23.2848L45.4835 34.6734L46.986 37.9476C47.1519 38.321 47.4397 38.7924 47.1655 39.1865C46.132 40.6713 42.8716 42.1804 41.2016 42.4955C39.6744 42.7837 39.7226 41.6829 39.5551 40.5605L39.3694 39.4981C38.9325 37.4983 38.0999 35.6511 37.2645 33.7915L34.2888 26.8865C34.284 27.499 34.3742 28.0867 34.4626 28.6914L34.9254 31.374C34.9678 31.6475 35.015 31.9179 35.0612 32.1912L35.1957 32.8615C35.2219 32.9817 35.2226 33.1092 35.2599 33.2268L35.7281 35.335C35.7806 35.5038 35.7782 35.6775 35.8226 35.8442L35.8323 35.8795C35.8768 36.0492 35.8766 36.2433 35.887 36.4183C36.0182 38.6353 34.5619 40.6828 32.4866 41.4209C30.532 42.116 29.4996 41.2915 27.624 41.7604C26.9137 41.938 26.7137 41.9818 25.9869 41.982L22.7723 41.9812C22.4488 41.9809 22.0492 42.0259 21.735 41.9502L21.0453 41.8026C19.7464 41.499 19.198 41.584 17.9764 41.7188C17.2263 41.8016 16.4714 41.7229 15.7519 41.5043ZM30.3056 7.68753C29.0525 10.0832 26.6571 10.8964 24.048 10.8882C21.7015 10.8808 18.783 10.1413 17.7814 7.74931C17.7667 7.71411 17.7776 7.71898 17.74 7.7262C15.0344 8.24633 12.63 9.17052 11.8246 12.1809C11.7404 12.4957 11.7189 12.8 11.6621 13.1171L10.9394 16.2652L9.51134 20.9075L7.73384 25.8231L4.28785 34.5699L2.46727 38.6472C3.48767 39.451 4.75329 40.0987 5.95081 40.5786C6.22446 40.6882 6.51664 40.755 6.78743 40.8641L6.87171 40.2561C7.0122 39.4791 7.20968 38.7015 7.4771 37.9583L9.24068 33.6369L13.2438 24.317C13.3106 24.1257 13.2796 24.0962 13.2327 23.8972L12.9694 22.8695C12.9002 22.5854 12.7898 22.1419 12.9085 21.8668L12.921 21.8359C13.0752 21.4745 13.5266 21.2725 13.8904 21.4376C14.1845 21.5711 14.3515 21.977 14.4643 22.2652L14.8337 23.306C15.7594 25.5517 15.214 29.1436 14.6419 31.3824L14.2312 33.0841C14.1536 33.4802 14.202 33.3821 14.5804 33.6235L15.8549 34.5064C17.9447 35.8808 19.1493 34.576 21.1264 34.5523C21.8069 34.5442 22.4593 34.7511 23.1231 34.861C24.6713 35.1175 25.8561 34.4678 27.1996 34.5556C29.0168 34.6744 30.4226 35.8189 32.3379 34.5742C32.8271 34.2563 33.2469 33.8323 33.7303 33.5106L32.7676 27.4815C32.5347 26.4025 33.221 22.3455 33.7367 21.6017C33.9695 21.266 34.4632 21.1753 34.7937 21.4241C35.1715 21.7085 35.1451 22.2588 35.0959 22.6761L34.9299 24.0887C34.9154 24.1781 34.9724 24.2787 35.0013 24.3629L37.8095 31.2624L40.2706 36.9605L40.7896 38.6298C40.8857 39.1997 41.025 39.752 41.098 40.3306C41.122 40.5205 41.1237 40.7101 41.1625 40.8983C42.6103 40.5191 44.5344 39.6866 45.6089 38.5878L44.1373 35.4137L40.1697 25.5701L38.4561 20.794L36.7801 15.1637L36.4126 13.4376C36.3393 13.0375 36.2861 12.6361 36.1836 12.2411C35.7312 10.4975 34.4126 8.99628 32.7307 8.34331C31.9356 8.03464 31.1084 7.93714 30.3056 7.68753ZM13.8728 35.0001C13.7391 35.4633 13.5892 36.1533 13.5709 36.6207C13.4963 38.5333 15.4216 40.1748 17.2679 40.1987C17.632 40.2034 17.9728 40.1109 18.3285 40.0538C20.0161 39.7826 20.4108 40.1545 21.9636 40.4131C22.718 40.5388 25.5327 40.5455 26.3426 40.4449C27.059 40.3559 27.7227 40.0262 28.4535 39.9812C29.2283 39.9334 29.7239 40.0968 30.4105 40.1435C31.6675 40.2293 32.8926 39.6992 33.664 38.6935L33.9358 38.285C34.3841 37.4728 34.5023 36.57 34.2498 35.675C34.2238 35.5828 34.1607 35.2301 34.1063 35.1783L33.4606 35.6598C31.7792 36.8192 30.1356 36.8505 28.2635 36.3319C26.5387 35.8541 25.8892 36.4378 24.327 36.4543L23.3023 36.4461C22.5807 36.4208 21.8699 36.0744 21.09 36.1019C20.4133 36.1258 19.8209 36.3622 19.1722 36.5164C16.9591 37.0424 15.5979 36.235 13.8728 35.0001Z" fill="black"/>
</svg>
