<svg width="48" height="48" viewBox="0 0 48 48" fill="none" xmlns="http://www.w3.org/2000/svg">
<path d="M30.7324 38.0179C28.7569 38.0225 28.0357 37.2035 27.8379 35.2984C26.2271 34.4854 26.4695 32.0227 26.6478 30.4728L26.7262 29.8965C26.754 29.6733 26.7249 29.6605 26.5976 29.4739L25.8111 28.4244C25.275 27.7162 24.7492 26.9784 24.3009 26.2108L23.9693 25.5834L21.2606 29.6313C21.2001 29.7258 21.241 29.7976 21.2523 29.9058L21.3274 30.5281C21.4928 31.9635 21.8054 34.1773 20.4003 35.1463L20.3189 35.2033C20.0088 35.4335 20.1863 35.5645 20.1281 35.9424C20.0271 36.5985 19.6353 37.2563 19.0927 37.6438C18.4674 38.0904 17.7575 38.0175 17.0344 38.0181L13.2621 38.0183C11.6768 38.018 10.8605 37.623 10.3686 35.9415C10.2883 35.667 10.3693 35.6296 10.1315 35.4378C9.00084 34.5257 8.80369 32.9025 8.99381 31.5516C9.0862 30.8951 9.18844 30.0671 9.50419 29.4711C9.54197 29.3998 9.25547 28.0036 9.21703 27.8038L8.56641 24.9301C8.42072 24.2198 8.27348 23.4958 8.18775 22.7755L8.03095 20.6838C7.82986 16.4998 10.2913 12.0018 14.854 11.7995C15.789 11.729 16.8512 11.9903 17.6912 12.4026C20.948 14.0014 21.778 17.3234 21.2659 20.6229C21.6005 20.6338 21.9521 20.5911 22.282 20.6544C22.82 20.7575 23.5205 21.146 23.8378 21.6205L24.0019 21.8549C24.6418 20.9098 25.5083 20.5065 26.6575 20.6212L26.5577 18.9982C26.4174 15.5839 28.6151 12.2168 32.1804 11.83C35.2923 11.4924 37.8345 13.4164 39.1103 16.1512C39.2791 16.513 39.4484 16.9078 39.5451 17.2959L39.6396 17.6218C39.9702 19.2364 40.048 20.8118 39.8456 22.4409L39.4165 25.083L38.4976 29.3618C38.4664 29.5166 38.5897 29.6749 38.634 29.8201C38.8972 30.683 39.2443 32.444 39.03 33.2192L38.9255 33.6738C38.7819 34.3695 38.3827 35.0404 37.8196 35.4782C37.6292 35.6262 37.735 35.7212 37.6748 35.9358C37.4015 36.9106 36.7799 37.8252 35.7027 37.9832L35.6719 37.9875C35.4311 38.0253 35.1884 38.0178 34.9453 38.0179L30.7324 38.0179ZM14.6734 13.0876C10.9112 13.3699 9.27605 17.1607 9.27773 20.4996C9.27811 21.2243 9.32822 22.2449 9.49575 22.949L9.97308 25.4197C10.0062 25.5293 10.017 25.6404 10.043 25.7506L10.418 27.4869C10.5754 28.2177 10.744 28.9718 10.7621 29.7213L19.9794 29.734C19.9881 29.5854 19.9998 29.4519 20.0407 29.3081L20.0521 29.2673C20.2259 28.6709 20.7842 28.2534 21.1118 27.7405L22.1078 26.2385C22.4693 25.6665 22.8675 25.0585 23.0946 24.4184C23.4485 23.4207 23.2047 22.2021 22.0312 21.9105L21.9855 21.8988C21.66 21.8177 21.2653 21.8963 20.9569 22.0152L20.9247 22.0273C20.1672 22.3176 19.5236 23.122 19.1054 23.7886C18.9751 23.9963 18.877 24.2556 18.698 24.4259C18.1174 24.9785 17.4256 24.2338 17.7439 23.5869C18.0772 22.9096 18.8803 21.9254 19.4743 21.4633C19.74 21.2566 19.8701 21.2882 19.929 20.9479L20.0046 20.5149C20.2268 19.2164 20.282 17.8991 19.8594 16.633C19.1235 14.4284 16.9977 12.9296 14.6734 13.0876ZM32.8532 13.089C31.7872 13.1371 30.8797 13.4207 30.0013 14.0319C27.8125 15.5548 27.647 18.1108 27.9648 20.4963C28.0946 21.4702 27.953 20.9514 28.6972 21.6052C29.1495 22.0025 30.5389 23.5404 30.3247 24.1827C30.2017 24.5517 29.8492 24.7112 29.4913 24.5525C29.1709 24.4106 28.6283 23.3917 28.3751 23.0723C27.7923 22.3372 26.8149 21.6454 25.8354 21.9423C25.2304 22.1256 24.8335 22.6633 24.7494 23.273L24.7438 23.3106C24.5452 24.7671 26.2195 26.978 27.0836 27.9967C27.3988 28.4363 27.7161 28.7932 27.9506 29.2856C28.0146 29.4199 27.9951 29.5772 28.0395 29.7196L37.2184 29.7213C37.3714 28.0873 37.8066 26.5224 38.1564 24.9253L38.5693 22.4548C38.9298 19.634 38.7225 17.1998 36.8089 14.8852C36.0565 13.9753 34.7419 13.2051 33.5359 13.1079L32.8532 13.089ZM10.3881 30.9926C10.2907 31.2148 10.2463 31.6815 10.2183 31.9377C10.1758 32.3266 10.2315 34.2215 10.7683 34.2383L18.7462 34.2394C19.2389 34.2393 19.4592 34.294 19.8146 33.911C20.33 33.2736 20.2259 32.6726 20.1845 31.8936C20.1701 31.6224 20.1838 31.3475 20.1614 31.0769L20.1462 30.9976L10.3881 30.9926ZM27.8314 30.9924L27.8107 32.4343C27.8085 33.0607 27.7721 33.4543 28.2161 33.9513C28.5705 34.3479 28.7812 34.2395 29.2699 34.2396L36.8146 34.2405C37.1896 34.2403 37.2759 34.2762 37.4867 33.9246C37.9713 33.0401 37.7985 31.9372 37.6485 30.988L27.8314 30.9924ZM11.9174 35.5133L11.5652 35.5322C11.942 36.9395 12.4023 36.7666 13.5632 36.7676L17.2547 36.7678C17.6697 36.7673 17.9968 36.8248 18.3629 36.6004C18.6574 36.3743 18.8321 36.1088 18.8809 35.7373L18.8988 35.5264L11.9174 35.5133ZM29.2411 35.5133L29.1445 35.5203C29.1052 35.5701 29.1187 35.621 29.1287 35.6831L29.1568 35.8145C29.3637 36.8488 30.1478 36.7674 30.9243 36.768L35.0963 36.7664C35.5152 36.7656 35.6768 36.7473 35.9992 36.4852C36.2212 36.2084 36.4023 35.8933 36.42 35.5287L29.2411 35.5133Z" fill="black"/>
<path d="M15.4289 33.1689C15.3205 33.1676 15.1968 33.1763 15.096 33.132L15.0703 33.1201C14.4435 32.8604 14.5741 32.0332 15.2198 31.8799C16.0866 31.9091 16.201 32.9362 15.4289 33.1689Z" fill="black"/>
<path d="M12.4196 33.1894C11.4764 33.2152 11.3859 32.2581 12.1691 31.8997C12.2471 31.8963 12.3465 31.8836 12.4198 31.9095L12.4857 31.9336C13.1656 32.1806 13.0134 32.9692 12.4196 33.1894Z" fill="black"/>
<path d="M18.4993 33.1631C17.7169 33.3072 17.3123 32.315 18.1504 31.9024C19.0161 31.7938 19.2607 32.8339 18.4993 33.1631Z" fill="black"/>
<path d="M29.861 33.164C29.7259 33.1786 29.5707 33.185 29.4435 33.1306L29.4137 33.1171C29.2342 33.0373 29.0911 32.896 29.0586 32.6933L29.0538 32.6601C28.9904 32.2815 29.1874 32.0606 29.5139 31.9024C29.8181 31.8579 30.1946 31.9801 30.2747 32.3127L30.2818 32.3437C30.3796 32.7173 30.1917 32.9947 29.861 33.164Z" fill="black"/>
<path d="M32.8164 33.1619C31.9057 33.2573 31.6714 32.288 32.4674 31.9029C33.3457 31.7675 33.584 32.7891 32.8164 33.1619Z" fill="black"/>
<path d="M35.6867 33.18C34.7825 33.1338 34.7455 32.1233 35.6025 31.8998C35.6811 31.8939 35.7413 31.908 35.8168 31.9298L35.8597 31.9426C36.1892 32.0384 36.3164 32.2878 36.267 32.6246L36.2517 32.7176C36.2184 32.8605 36.0993 33.021 35.9727 33.0931L35.9514 33.1048C35.8642 33.1538 35.7853 33.166 35.6867 33.18Z" fill="black"/>
</svg>
