<svg width="48" height="48" viewBox="0 0 48 48" fill="none" xmlns="http://www.w3.org/2000/svg">
<path d="M30.1522 43.4932L24.4149 43.4895C24.1778 43.4861 23.9447 43.4468 23.7094 43.443L21.8987 43.435C21.7295 43.4309 21.5633 43.3996 21.3944 43.3964L18.9512 43.3205C18.7997 43.309 18.6535 43.2822 18.5009 43.279L14.1898 43.2687C13.6966 43.268 13.3169 43.256 12.899 42.9351L12.6912 42.7653C12.0072 42.1189 12.0528 41.4859 12.0535 40.6362L12.05 38.141L11.0104 42.3914C10.7171 43.4951 10.3457 43.1924 9.39067 43.0243L5.713 42.3395C4.93548 42.1706 5.23872 41.2314 5.32543 40.7048L6.27686 32.9762L7.10997 24.5621L7.77493 16.4053C7.80311 16.0828 7.78773 15.7563 7.83929 15.4364C8.33603 12.3544 10.3082 11.0481 13.1365 10.5914L14.2507 10.4149C15.912 10.1981 17.1805 9.52639 18.0842 8.06801L18.4822 7.36887C18.674 7.00193 18.7622 6.71112 19.2346 6.66589C19.55 6.67011 19.7371 6.84879 20.0052 6.99106C22.261 8.18806 25.4074 8.22884 27.705 7.11406L28.443 6.7392C29.0001 6.48237 29.3413 6.93003 29.5475 7.38622C30.5 9.49372 31.8537 10.0876 33.9373 10.4293L35.3245 10.6754C37.3567 11.0403 38.947 12.0093 39.7849 14.0123C40.2626 15.1542 40.2143 16.4368 40.3158 17.648L40.875 24.5387L41.2531 28.5348L41.9559 34.8731C41.975 35.0478 41.9797 35.2287 42.0044 35.402L42.7414 41.1491C42.9153 42.3096 42.7903 42.2198 41.6095 42.4766L38.2973 43.1093C37.3089 43.2938 37.1837 43.207 36.9471 42.2141L35.9139 38.0064C35.8453 38.9197 36.0405 41.1564 35.8129 41.8707C35.4425 43.0332 34.4112 43.4884 33.2861 43.4903L30.1522 43.4932ZM19.9171 8.42539C20.0102 9.30106 21.1193 10.1496 21.8787 10.4053C22.5549 10.633 23.2432 10.6134 23.9474 10.613C25.2925 10.6121 26.7364 10.5604 27.6116 9.35647L27.623 9.34043C27.8345 9.05797 27.9992 8.76504 28.0886 8.42037C26.3949 9.09739 25.5269 9.21851 23.7665 9.20961C22.6169 9.20375 21.3377 9.01662 20.2703 8.55547C20.1798 8.51642 20.0109 8.40903 19.9171 8.42539ZM18.7703 9.29483C17.8408 10.673 16.6128 11.3101 14.9764 11.6246C12.6625 12.0692 10.3158 12.0479 9.3197 14.7539C9.12817 15.2741 9.09297 15.8229 9.05908 16.3707L8.6695 21.2571C8.66045 21.3748 8.63279 21.4901 8.62473 21.6075L7.64237 32.3527L6.61886 40.6798C6.59668 40.847 6.55829 40.9954 6.55281 41.1668L9.86697 41.7925L12.0219 32.7863C12.0827 32.5626 12.0507 32.2675 12.051 32.0342L12.053 30.7158C12.054 30.4171 12.1003 30.127 12.1091 29.8304L12.1197 26.961C12.1231 26.7117 12.1743 26.4722 12.1776 26.223L12.1882 23.3366C12.1909 23.2143 12.1849 23.0759 12.2128 22.9566C12.3464 22.384 13.1557 22.3438 13.4026 22.8512L13.4446 22.9516C13.481 23.0421 13.4733 23.1578 13.4738 23.2543L13.4728 25.1949C13.4692 25.5165 13.3947 25.8239 13.3889 26.1457L13.3528 30.3746C13.3354 31.3027 13.3867 32.2404 13.3233 33.1662C13.6854 33.2442 14.0605 33.2737 14.4277 33.321L16.4957 33.5639L19.9277 33.7879C20.1731 33.8029 20.4158 33.8479 20.6613 33.8545L25.4813 33.8528C25.6941 33.8467 25.8975 33.7821 26.1141 33.7783L28.0947 33.7603C28.3579 33.7508 28.6147 33.7026 28.8763 33.6859L29.809 33.6637C30.3375 33.6412 31.0941 33.5975 31.5976 33.5351L34.0076 33.3261C34.2518 33.2962 34.4993 33.2816 34.7365 33.2115L34.7248 33.1808C34.6742 33.0347 34.6886 32.8365 34.6871 32.6834L34.6787 27.4712L34.6005 24.8854C34.5794 24.4414 34.3971 23.2325 34.5946 22.8552C34.8503 22.3664 35.4901 22.401 35.7187 22.8746L35.7312 22.9C35.8596 23.1689 35.8122 23.5937 35.8146 23.8924L35.8302 24.8444C35.8328 25.085 35.8933 25.3244 35.8961 25.5699L35.905 28.6402C35.9347 29.2065 35.9767 29.6476 35.977 30.2457V31.7229C35.9773 32.0644 35.9296 32.502 36.0364 32.8261L36.3837 34.2455C36.4913 34.8178 36.6511 35.4017 36.7981 35.9645L37.6611 39.7563C37.7365 40.126 37.7897 40.5114 37.9139 40.8697L38.0042 41.2281C38.0539 41.3868 38.0616 41.6639 38.1559 41.7945L40.16 41.4214C40.5918 41.3399 41.0313 41.2075 41.4691 41.1704L40.4308 32.9645L40.0549 29.3785L38.9275 16.2782C38.7464 13.57 37.3282 12.2787 34.6071 11.8861C32.1389 11.5301 30.8095 11.255 29.2096 9.30383C28.5359 10.5556 27.6809 11.3135 26.2806 11.7321L25.3094 11.949C24.951 12.0375 23.4244 12.0005 23.0148 11.9738C21.4354 11.871 19.9277 11.1144 19.0474 9.77872C18.9454 9.62389 18.8657 9.45406 18.7703 9.29483ZM13.3825 34.5415L13.3822 36.1993L14.2643 36.2187C14.472 36.2322 14.6756 36.2735 14.8836 36.2834L17.5792 36.3995C18.1002 36.4047 18.608 36.4767 19.1292 36.4884L20.9881 36.4994C21.1477 36.5053 21.3027 36.5454 21.4625 36.5515L28.4061 36.5581C28.6135 36.5541 28.8197 36.518 29.0272 36.5085L32.2499 36.3782C32.506 36.3604 32.7552 36.311 33.0132 36.2995L34.1014 36.2341C34.258 36.2254 34.414 36.2331 34.5701 36.213L34.6134 36.0498C34.6122 35.5849 34.6525 35.0769 34.6021 34.6173C34.0894 34.6342 33.5823 34.7134 33.0722 34.7551L29.1913 35.0402L26.4655 35.1474L18.8654 35.0609C18.2426 35.0436 17.5643 34.9904 16.9427 34.9271L14.7855 34.6988C14.318 34.6503 13.8447 34.6405 13.3825 34.5415ZM13.381 37.5866L13.3832 41.1881C13.3834 41.5172 13.4067 41.8083 13.783 41.9232L13.8145 41.9332C14.0821 42.0129 14.476 41.962 14.759 41.9598L20.1204 42.0222L24.6304 42.1442C24.8464 42.1468 25.0583 42.1844 25.2739 42.1881L32.5147 42.19C33.2042 42.1899 33.9799 42.294 34.4733 41.6857C34.534 41.5976 34.5952 41.5238 34.602 41.4137L34.5918 37.5589C34.2656 37.6007 33.9293 37.5888 33.6009 37.6104L29.5095 37.8445L19.6747 37.8472C19.4956 37.843 19.3242 37.7856 19.1461 37.7745C18.4176 37.729 17.6517 37.7412 16.8983 37.7028L13.8162 37.5778C13.7049 37.5751 13.4676 37.5337 13.381 37.5866Z" fill="black"/>
</svg>
