<svg width="48" height="48" viewBox="0 0 48 48" fill="none" xmlns="http://www.w3.org/2000/svg">
<path d="M30.9965 40.7347L25.1517 41.0579L21.891 41.0486C19.9661 40.9683 17.4593 40.6962 15.5577 40.299C14.7743 40.1354 13.578 39.8834 13.4299 38.8936C13.3895 38.6242 13.4222 38.3059 13.4224 38.0309L13.4304 29.4475L13.1027 30.7855L11.242 37.0385C11.0763 37.7473 10.6625 37.8533 9.96134 37.7904C8.93412 37.6981 7.95312 37.4495 6.96059 37.187C5.7718 36.8726 5.56601 36.89 5.62006 35.7092L5.75065 33.9735L7.15048 25.1018L9.59675 13.0705L10.0303 10.7581C10.524 7.81301 11.3923 7.59045 13.9366 6.64671L16.2533 5.76317C16.8535 5.5415 17.2809 5.29943 17.9228 5.21248L17.9887 5.20414C18.6855 5.15571 19.3122 5.36421 19.8419 5.79921C21.1001 6.83229 25.7239 6.68351 27.4992 6.12846C28.2875 5.88195 28.4674 5.34026 29.4625 5.2451L29.507 5.24107C30.323 5.16181 30.7375 5.37012 31.4723 5.65259L35.309 7.16459C37.3669 8.02353 37.6178 8.77306 37.9697 10.7815L38.2047 11.9885C38.2619 12.2221 38.2982 12.4648 38.3395 12.7016L38.4866 13.3948C38.5079 13.4872 38.5097 13.585 38.5322 13.676L38.907 15.4807C38.9691 15.7536 39.0447 16.0352 39.0818 16.3125L41.3532 28.0051C41.4002 28.1838 41.4134 28.3654 41.4397 28.5477L42.2594 34.0876C42.3027 34.5664 42.3343 35.0337 42.3554 35.5147C42.4176 36.9341 42.3799 36.8604 41.1661 37.169C40.4077 37.3618 38.1816 37.9932 37.4344 37.773L37.3949 37.7605C36.8358 37.5882 36.8164 37.181 36.6711 36.6943L34.5994 29.5752C34.5604 29.8792 34.5798 30.1899 34.5813 30.4959L34.5877 38.1223C34.5877 38.6617 34.6013 39.0455 34.2671 39.5055C33.7691 40.1909 31.7983 40.6041 30.9965 40.7347ZM18.1952 6.3401L18.1059 6.37057C18.0982 6.46118 18.1593 6.55381 18.1973 6.63476L18.6762 7.64206C19.7482 9.69818 22.2257 11.9447 24.68 11.5233C26.0247 11.2924 27.6388 9.97479 28.499 8.89109C29.0996 8.12834 29.6157 7.29889 29.9255 6.37437C29.4163 6.30392 29.3274 6.48739 28.9027 6.73048C26.6503 8.01954 21.9193 8.07982 19.5068 6.9394C19.1569 6.77403 18.5667 6.24931 18.1952 6.3401ZM17.0571 6.68698L13.1657 8.17418C12.841 8.30403 12.5032 8.42407 12.1996 8.59906L12.1717 8.6149C12.0635 8.67898 11.9727 8.78009 11.8834 8.86789C12.0756 9.01878 12.2889 9.13657 12.4746 9.29778C13.4796 10.1704 13.7824 11.0744 14.1924 12.2432L14.4693 13.4265C14.5953 13.9033 14.5818 14.4389 14.5832 14.9282L14.5731 38.3139C14.553 38.9303 14.5628 38.8392 15.2231 39.0247C15.8771 39.2085 16.5268 39.3084 17.1955 39.4147L18.4915 39.5955L23.4304 39.9001L23.4302 12.6963C20.5765 12.2186 18.2244 9.86857 17.2389 7.21249C17.1744 7.03849 17.0964 6.86923 17.0571 6.68698ZM30.9792 6.69068C30.1255 9.36232 27.404 12.3302 24.5818 12.6897C24.5248 13.2825 24.5636 13.9041 24.5634 14.5014L24.5636 38.7816C24.5636 39.1339 24.5299 39.5301 24.5819 39.878L29.8071 39.682C30.4863 39.6387 32.8903 39.2798 33.3771 38.7909C33.466 38.7016 33.4508 38.5617 33.4519 38.4461L33.4431 18.1415C33.4403 17.5069 33.4457 17.3712 33.3218 16.773L32.8934 14.6135C32.8524 14.3525 32.7891 14.1199 32.8966 13.8658C33.2118 13.1203 33.6301 12.4224 34.0215 11.7154L35.7918 8.64518L30.9792 6.69068ZM36.5369 9.57448L34.9626 12.3654C34.6213 12.9719 34.2527 13.5443 33.9973 14.1958C33.9039 14.434 34.1695 15.2551 34.2063 15.5772L36.6224 10.9982C36.6691 10.9108 36.7701 10.8151 36.8039 10.7299C36.8493 10.6154 36.6485 9.74956 36.5369 9.57448ZM11.2614 9.88057C11.2065 10.2987 11.187 10.7195 11.1177 11.137L8.72469 22.8284L7.37028 30.6106L6.90078 33.8379C6.81139 34.5143 6.72228 35.209 6.72655 35.8923C7.20964 36.0914 7.72128 36.2083 8.23025 36.3198L9.13526 36.5L10.2079 36.6869C10.2605 36.3603 10.3612 36.0345 10.4525 35.7165L12.2025 29.8071L13.1169 26.3417C13.2526 25.8179 13.4245 25.2774 13.4251 24.7363L13.426 14.0745C13.391 12.6147 12.5529 10.6748 11.2931 9.89965L11.2614 9.88057ZM37.1282 12.4104L34.6288 17.2639C34.5087 17.4836 34.5859 18.2251 34.5856 18.4992L34.5892 25.2535C34.5936 25.3937 34.6628 25.5883 34.7071 25.7229L34.7212 25.7617C34.7532 25.8526 34.7717 25.9508 34.7912 26.0451L36.1338 30.8521C36.2817 31.2562 36.3575 31.6879 36.5075 32.0929L37.2284 34.6152C37.2363 34.6487 37.247 34.6775 37.2588 34.7095L37.7716 36.6443L38.6148 36.557L41.2759 35.9412C41.246 34.9877 41.1373 34.0597 40.9994 33.1174L40.1113 27.3312L38.4262 18.5039L37.6238 14.7893C37.5651 14.5099 37.1954 12.4891 37.1282 12.4104Z" fill="black"/>
</svg>
