<svg width="48" height="48" viewBox="0 0 48 48" fill="none" xmlns="http://www.w3.org/2000/svg">
<path d="M25.3438 7.84637L21.2038 7.85088C20.7606 7.8572 20.3355 7.90952 19.8985 7.98166C18.6227 8.19227 16.794 8.62863 17.4518 10.41C18.1285 12.2422 19.2406 14.0743 20.7194 15.3818L21.3008 15.9052C22.9988 17.3212 23.4129 17.8435 23.4138 20.203L23.4136 38.1288C23.4136 38.4077 23.4414 38.7178 23.4 38.9932L23.395 39.0233C23.1872 40.3244 22.0574 41.335 20.791 41.5844C20.498 41.642 20.1438 41.6064 19.8447 41.6065L14.703 41.607C14.1897 41.607 13.6541 41.638 13.1429 41.6046C12.8316 41.5842 12.3482 41.1201 12.3094 40.8349L12.3058 40.7988C12.2463 40.2401 12.287 39.6336 12.2854 39.0692C12.1952 38.9679 12.036 38.9151 11.923 38.836C10.4339 37.7938 9.6224 36.379 9.51215 34.5904L5.97318 33.674C4.99073 33.444 4.90692 33.3873 4.67187 32.3983C4.33633 30.9866 4.20734 30.0408 4.20605 28.6084L4.22617 26.8158C4.23488 26.6586 4.27346 26.5149 4.28727 26.3622L4.43522 24.9178C4.61595 23.714 4.88563 22.5214 5.19112 21.3438L6.43546 17.2961C7.26131 15.0105 8.52951 11.4299 10.8941 10.4554C11.3907 10.2507 11.9229 10.1485 12.4451 10.0324L15.3219 9.34305C15.5141 9.29884 15.709 9.23308 15.9057 9.21409L15.9489 9.21044C16.0096 9.10047 16.0192 8.93439 16.0507 8.81022C16.5604 6.80031 19.635 6.45306 21.4164 6.39513L22.7255 6.39062L26.906 6.39569C28.6419 6.46272 31.3226 6.772 31.9422 8.74675C32.1221 9.31994 31.9926 9.10591 32.6438 9.2755L34.5848 9.73698C38.0563 10.4976 38.807 10.9449 40.4206 14.4679L41.3204 16.6443L42.4694 20.0272C42.5958 20.4415 42.7465 20.8761 42.8269 21.3011L42.9267 21.6778C43.0046 22.1229 43.1628 22.5718 43.264 23.0149L43.5349 24.3003C43.8126 25.6536 43.8786 27.3704 43.876 28.7356L43.8505 29.6852C43.8335 29.9284 43.7946 30.1637 43.7612 30.4058L43.2349 32.871C43.0891 33.4188 42.5802 33.5412 42.0962 33.6537L38.5563 34.5833C38.4786 34.6021 38.5117 34.6629 38.5079 34.7395C38.424 36.382 37.3643 38.1272 35.9304 38.92C35.6978 39.0485 35.7296 38.985 35.7255 39.2515L35.7192 40.3531C35.7187 40.5105 35.7511 40.8211 35.6563 40.9528C34.9996 41.8653 34.7873 41.6064 33.7079 41.607H27.7282C27.5686 41.6066 27.4 41.6172 27.2438 41.5806L26.9862 41.5219C25.8008 41.2331 24.6997 40.1425 24.5892 38.8886C24.5527 38.476 24.581 38.0417 24.581 37.626L24.5808 19.7878C24.5838 17.4323 25.4672 17.0629 27.1398 15.5801C28.0924 14.7357 28.9742 13.6151 29.5961 12.5129L30.0074 11.701C30.2317 11.2446 30.4323 10.7844 30.5712 10.2943C31.3363 7.59555 26.8986 7.84581 25.3438 7.84637ZM31.9542 10.577C31.4095 12.787 29.5728 15.3232 27.928 16.7895L27.1044 17.4762C25.8728 18.4699 25.9687 19.0031 25.9682 20.533L25.9685 37.852C25.9689 38.762 25.9508 39.4757 26.9179 39.9729L27.2221 40.1079C27.4041 40.1849 27.6944 40.1477 27.8937 40.1479L34.2721 40.1687C34.3061 40.1707 34.2949 40.17 34.3341 40.1602L34.3329 38.8667C34.3335 38.2493 34.2612 38.2119 34.8493 37.8924C36.1339 37.1944 37.0987 35.9556 37.101 34.4413C37.102 33.8079 36.8474 33.2009 36.6114 32.6242L35.3646 29.6427C34.9923 28.7029 34.6574 27.713 34.4818 26.7162C34.2638 25.6653 34.3863 24.2248 34.9721 23.334C35.3393 22.7755 36.5108 21.5476 37.1775 21.4056C37.7081 21.2925 38.2201 21.9405 37.9522 22.4178C37.8372 22.6229 37.5928 22.7642 37.4095 22.9032C36.4858 23.6035 35.7961 24.2724 35.7906 25.5029C35.7894 25.763 35.7599 26.0763 35.8252 26.3283L35.8486 26.4085C35.9616 26.8029 35.9834 27.2116 36.1319 27.6069L38.3413 33.1896L41.2302 32.3879C41.4555 32.3267 41.6775 32.257 41.9105 32.2311C43.3776 27.9242 41.8561 22.291 40.3905 18.2049C39.6668 16.1871 38.4358 12.3468 36.2436 11.604L31.9542 10.577ZM16.0066 10.6522L13.3141 11.287C11.8076 11.6508 10.7238 11.7718 9.83863 13.1924C8.86021 14.7625 8.18198 16.525 7.60143 18.2744L7.30973 19.0852C6.34757 22.1142 5.57376 25.2441 5.57409 28.4391L5.59138 29.5572C5.59837 29.7104 5.59303 29.8834 5.62462 30.0335L5.96306 31.8175C5.99582 31.9576 6.00351 32.121 6.09698 32.2373L9.69173 33.1833C10.3942 30.8705 11.7244 28.8625 12.1228 26.3635C12.3947 24.6583 11.9743 23.7792 10.692 22.6829C10.5149 22.5316 10.3004 22.4057 10.1656 22.2118C9.75674 21.6234 10.4676 20.9568 11.0729 21.2103C12.0097 21.6027 13.3161 23.4057 13.5102 24.3676C13.5577 24.6031 13.5901 24.8024 13.5991 25.0473L13.5919 25.9242C13.5828 26.1434 13.5731 26.3883 13.5134 26.5997C13.3834 27.6367 12.9698 28.6988 12.5939 29.6659L11.5552 32.2586C11.0676 33.4737 10.6048 34.2961 11.1108 35.6483C11.4325 36.5079 12.1338 37.3717 12.9632 37.7991C13.1996 37.9209 13.4594 37.9956 13.6004 38.2382L13.6156 38.2632C13.7465 38.491 13.6384 39.8308 13.672 40.1787L20.0441 40.15C20.2484 40.1499 20.4923 40.1743 20.6899 40.1315C21.3135 39.9966 21.9399 39.3519 22.0211 38.7127C22.0499 38.4856 22.03 38.2336 22.0304 38.0041L22.0285 19.3593C21.9718 18.0406 20.7524 17.3837 19.9024 16.5715C18.3232 15.0624 16.6257 12.8355 16.0662 10.6644L16.0066 10.6522Z" fill="black"/>
</svg>
