<svg width="48" height="48" viewBox="0 0 48 48" fill="none" xmlns="http://www.w3.org/2000/svg">
<path d="M25.531 43.6067L24.0117 34.5649C23.9664 34.8597 23.8674 35.2012 23.8149 35.5309L22.2815 44.543C22.0285 45.8644 21.8297 45.6786 20.6689 45.6779L15.082 45.683C14.1559 45.6869 14.0868 45.4948 13.9739 44.5157L12.313 29.9762L11.5574 21.578L11.4366 17.4547C11.4358 16.8902 11.3699 16.3387 11.3687 15.7749L11.3697 12.9247L11.7032 8.50747C11.893 6.84406 12.0837 5.19641 12.4587 3.56151L12.6302 2.85903C12.7572 2.38083 12.8815 2.08587 13.4204 2.02344L34.664 2.03942C35.0087 2.0494 35.2419 2.25192 35.332 2.5895L35.3606 2.68235C35.45 2.94432 35.469 3.24543 35.5317 3.51528C36.14 6.13597 36.4425 9.46724 36.5666 12.1401C36.5765 12.353 36.6186 12.5652 36.6243 12.7773L36.6191 16.8364C36.6109 17.0561 36.5602 17.2715 36.5505 17.488L36.5397 19.8354C36.5347 20.1477 36.4682 20.4525 36.4487 20.7635L36.4295 21.8434C36.4207 22.0008 36.3846 22.1548 36.3755 22.3122L35.5692 31.1243L34.9795 36.7108L34.0402 44.5679C33.8941 45.4039 33.9333 45.6388 32.9356 45.6894C32.6147 45.7057 32.2903 45.7336 31.9687 45.7211L27.6292 45.6799C26.2897 45.68 25.9529 45.9529 25.6769 44.3764L25.531 43.6067ZM13.8043 3.35899L13.6558 4.15024L34.1308 4.15473C34.198 4.16773 34.2642 4.17116 34.3308 4.16165C34.2972 3.89798 34.2447 3.60559 34.1539 3.35632L13.8043 3.35899ZM13.4148 5.51066L12.9064 9.59225C12.8539 10.226 12.7738 10.8783 12.7948 11.5152C13.3042 11.193 13.7243 10.6873 14.0919 10.2154C14.9706 8.97298 15.5221 7.88909 15.8604 6.36533L15.9674 5.79181C15.9818 5.70589 16.0126 5.60567 16.0107 5.51989L13.4148 5.51066ZM17.3339 5.51066C17.2 6.15219 17.1196 6.7947 16.9336 7.43103C16.4655 9.03205 15.6378 10.6222 14.4585 11.8133C14.0472 12.2287 13.2638 12.9624 12.6577 13.0507L12.6672 16.5686C12.6704 16.8082 12.7208 17.0427 12.7232 17.2855L12.739 19.5785C12.7469 19.8021 12.8085 20.0032 12.8174 20.2231L12.844 21.4107C12.8568 21.6271 12.9033 21.8367 12.914 22.0543L13.0032 23.3054C13.0133 23.4395 13.0072 23.5718 13.0244 23.7058L13.5107 28.9376L14.7578 40.1947C14.8884 41.2976 14.9488 42.4164 15.1318 43.5114C15.1749 43.7694 15.1656 44.0398 15.2599 44.2865L18.9967 44.2685L21.0404 44.2728L23.2618 30.6833C23.3095 30.3678 23.4081 30.0482 23.433 29.7301C23.4448 29.579 23.3655 29.4114 23.3636 29.2497L23.3613 16.3647C23.3612 15.8352 23.3144 15.3078 23.4479 14.7917L23.4341 14.7678C23.2637 14.4612 23.3624 13.9298 23.3621 13.5879L23.362 5.51408L17.3339 5.51066ZM24.6611 5.51727L24.6795 13.715C24.6909 14.0622 24.7029 14.4502 25.0755 13.9271L25.1138 13.8646C25.445 13.2438 25.4276 12.6548 25.4284 11.9689L25.4292 5.52758L24.6611 5.51727ZM26.655 5.51066C26.6187 5.78037 26.6283 6.0582 26.6275 6.33191L26.626 11.5569C26.6258 12.2247 26.6863 12.9516 26.5297 13.6051C26.3046 14.5437 25.6686 15.4153 24.6776 15.5968C24.6569 15.8214 24.6676 16.0407 24.6675 16.2656L24.6665 25.6802C24.6664 26.5145 24.63 27.3698 24.6764 28.2024L24.7207 28.6848C24.74 28.9671 24.7672 29.2284 24.8015 29.5066L25.0497 32.1407L25.4074 34.7106L26.8676 43.6916C26.8942 43.8875 26.9118 44.0841 26.9846 44.2692L32.7819 44.2925L32.8427 43.9392C32.9385 43.4621 32.9675 42.9693 33.0365 42.4875L34.5735 28.0235L35.0925 22.0559C35.1027 21.9173 35.1416 21.786 35.1507 21.6515L35.1824 20.2447L35.3502 17.3993L35.3633 14.5309C35.3632 14.0528 35.4054 13.5294 35.3477 13.0563L35.3248 13.0479C32.9661 12.1708 31.3772 9.01803 30.8565 6.75191C30.7615 6.33875 30.6762 5.93736 30.6742 5.51145L26.655 5.51066ZM31.9545 5.51066C32.0589 7.3543 33.3255 9.7692 34.6377 11.0097C34.8007 11.1638 34.97 11.3495 35.1728 11.4498L35.1991 11.402L34.6033 5.51698L31.9545 5.51066Z" fill="black"/>
</svg>
