<svg width="48" height="48" viewBox="0 0 48 48" fill="none" xmlns="http://www.w3.org/2000/svg">
<path d="M17.717 43.1324L12.986 42.4879C12.03 42.3789 11.7163 42.1456 11.7215 41.1844L11.7439 30.2796C11.7535 30.0739 11.801 29.8756 11.8105 29.6696L12.1136 22.6022C12.122 22.3924 12.1431 22.189 12.1343 21.9787C11.8796 22.2776 11.4602 22.607 11.1193 22.7855L10.8647 22.9131C9.28725 23.6086 7.67217 22.6718 6.32288 21.9211L4.57514 20.9184C3.89455 20.4868 2.62052 19.6134 2.30336 18.8617L2.24316 18.7035C2.1475 18.4356 2.12158 18.1011 2.16778 17.8201L2.17314 17.7895C2.25428 17.2702 2.51577 16.9947 2.89382 16.6684L4.78702 15.0468C6.07407 13.877 6.86803 12.76 7.75247 11.2465L8.66682 9.69464C9.77691 7.95816 11.1374 6.46983 13.2422 6.03057L14.6082 5.80406C15.3844 5.65467 16.1129 5.38336 16.8051 5.00489L17.3907 4.66639C18.2992 4.11379 18.3079 4.26868 19.1585 4.65277C21.9165 5.89819 26.2064 5.90203 28.9299 4.57404C29.1633 4.46023 29.37 4.32732 29.6275 4.27087C30.0224 4.23326 30.3175 4.52686 30.6374 4.70602C31.7152 5.30958 32.7287 5.69588 33.9493 5.90358C34.2094 5.94783 34.4756 5.96527 34.7344 6.02325C37.1695 6.56897 38.5149 8.31657 39.7468 10.3832L40.5075 11.6903C41.6723 13.5658 42.6313 14.5868 44.2777 15.9798C45.6905 17.175 46.648 18.1986 45.0182 19.7357C43.9998 20.6961 42.6919 21.378 41.4725 22.0483C39.6182 23.0677 37.5824 23.8773 35.8871 22.0408L35.8658 22.0174C35.8539 22.2345 35.9011 23.2736 35.9303 23.4338C36.0675 24.1866 36.0031 25.2309 36.0557 26.0698L36.1341 27.8719C36.1452 28.0386 36.1716 28.2031 36.1772 28.3704L36.1921 30.3241C36.1969 30.4952 36.2363 30.6616 36.2429 30.8325L36.2481 32.1791C36.2521 32.3863 36.2879 32.5898 36.2911 32.7954L36.2959 39.3157C36.296 39.7109 36.3484 41.542 36.2545 41.7152C36.0922 42.0149 35.9688 42.2361 35.6441 42.3898L35.6073 42.4067C35.4538 42.478 35.2984 42.4774 35.1329 42.4948L27.5791 43.4725L24.8438 43.6411C24.172 43.665 23.5074 43.6291 22.8375 43.601L21.7581 43.5718L17.717 43.1324ZM18.8948 6.15277C18.8896 6.45896 19.1423 7.44966 19.2359 7.72308C19.6289 8.87128 20.1299 9.87919 20.9336 10.8007C21.8147 11.8109 22.5151 12.1121 23.7926 12.1158C25.5211 12.121 26.2562 11.9285 27.3635 10.4563L27.7515 9.88702C28.2449 9.03788 28.6253 8.21067 28.8344 7.24547L28.9627 6.57028C28.9853 6.43317 28.9943 6.2851 29.0359 6.15263C26.3992 7.38839 22.0247 7.29577 19.3903 6.34322L18.8948 6.15277ZM17.4504 6.3128C16.7207 6.66957 16.0256 6.97435 15.2344 7.17338C14.5451 7.34677 13.8232 7.39866 13.1443 7.59591C10.9196 8.24236 9.87657 10.5801 8.77599 12.4029C7.68858 14.204 6.57146 15.5029 4.95446 16.8637L3.95858 17.7183C3.83222 17.8321 3.68064 17.9467 3.58046 18.0834C3.99401 19.0704 6.42277 20.308 7.33777 20.8013C8.74444 21.5597 9.77208 22.2165 11.0802 20.9726C11.4757 20.5965 11.8568 20.1453 12.3036 19.8366L12.3676 18.2661C12.3886 17.1535 13.4967 17.0104 13.7989 17.8715L13.8146 17.906C13.8733 18.0414 13.7349 20.4631 13.7075 20.5903C13.6262 20.9659 13.6599 21.3852 13.6374 21.7698L13.548 23.309C13.5411 23.4111 13.5136 23.5094 13.5082 23.6103L13.3217 27.4636L13.182 31.4824L13.175 33.4575C13.1702 33.6297 13.1389 33.7994 13.1335 33.9719L13.1274 35.996C13.1278 36.3671 13.1039 36.7641 13.1541 37.1309L34.8713 37.1278L34.8706 34.502C34.8703 34.0774 34.9144 33.5807 34.8432 33.1643L34.8501 33.1433C34.72 32.6386 34.8044 31.0947 34.7953 30.4966L34.6815 27.3338L34.5244 24.4903C34.4986 23.7513 34.4401 23.0235 34.4206 22.2965L34.2098 18.8242C34.195 18.5623 34.1262 18.2882 34.1495 18.0266C34.2002 17.4569 34.9065 17.1023 35.3544 17.4918C35.9001 17.9664 35.4339 19.4534 35.68 19.8488C35.715 19.905 35.8939 19.9924 35.9564 20.0512L36.89 20.9722C37.8391 21.8627 38.6886 21.8293 39.8535 21.2408L40.9673 20.6371C41.6797 20.2489 44.0996 18.9821 44.3699 18.1693L44.3919 18.0979C44.2704 17.891 44.057 17.7324 43.8799 17.5737L42.5068 16.3846C40.8187 14.8705 39.8485 13.4426 38.6795 11.4965C37.6041 9.70632 36.7138 8.04839 34.5586 7.50464C33.3612 7.20253 32.655 7.22696 31.4273 6.71644L30.4776 6.31182C30.1757 8.88024 29.1036 11.2484 27.0325 12.8945C26.5605 13.2697 24.4864 14.7955 23.8615 14.7105C23.6641 14.6836 23.4094 14.5 23.2298 14.4062C20.1819 12.8143 17.7915 9.80307 17.4516 6.31622L17.4504 6.3128ZM13.2407 38.6075L13.1488 38.616C13.1165 38.7947 13.1274 38.9876 13.1271 39.1692L13.1266 40.0775C13.1266 40.3812 13.0894 40.7449 13.1364 41.0417C13.3302 41.0707 13.5254 41.0734 13.7204 41.0917L17.4852 41.6172L21.3768 42.0388C22.1024 42.1088 23.0131 42.1479 23.7573 42.162C24.1047 42.1685 24.4501 42.1281 24.7969 42.1193L26.2953 42.0887C26.4248 42.0802 26.5466 42.0499 26.6753 42.0395L31.7461 41.4351C32.4039 41.3485 33.062 41.2189 33.7231 41.1633L34.3711 41.0861C34.534 41.0708 34.7126 41.0735 34.8707 41.0342L34.8704 38.6119L13.2407 38.6075Z" fill="black"/>
</svg>
