<svg width="48" height="48" viewBox="0 0 48 48" fill="none" xmlns="http://www.w3.org/2000/svg">
<path d="M25.3773 30.0991L23.9841 24.3592L19.9685 40.4299C19.8844 40.7398 19.8374 41.1212 19.7028 41.4101L19.6896 41.4378C19.3934 42.071 17.6593 41.8205 17.1172 41.7412C16.1323 41.5972 15.1695 41.3605 14.2781 40.9036C12.7522 40.1214 12.7444 39.4436 12.9234 37.924L13.5858 30.3539L14.1491 23.2362L14.4232 19.8092L14.4674 18.5606L14.7457 14.5275C14.7576 14.3528 14.8173 14.2191 14.871 14.0558L15.0611 13.407C15.3585 12.238 15.3926 11.2366 15.3934 10.0465L15.3945 7.06666C15.4003 6.43962 15.8192 6.14984 16.3832 6.14941L17.0335 6.15199L31.1727 6.15021C32.4762 6.15012 32.2711 6.79985 32.2716 7.77335L32.3382 10.4534C32.3769 11.2185 32.4228 12.013 32.6327 12.7539C32.9975 14.0424 33.0822 16.0616 33.1987 17.4046L33.6572 22.8518L35.0573 37.8285C35.1441 38.4152 35.287 39.0586 35.0661 39.6331L34.9831 39.8202C34.1726 41.3532 30.7983 41.8967 29.2734 41.8289C28.4922 41.7941 28.4903 41.733 28.2768 40.9875L27.186 37.1044L25.3773 30.0991ZM17.4545 7.34412C18.8191 7.95204 20.1202 8.21974 21.6032 8.34457C23.7622 8.5263 27.7158 8.46162 29.6273 7.72484L29.7731 7.66324L30.3321 7.36915L17.4545 7.34412ZM16.5368 8.07448C16.5248 8.31391 16.4835 9.60119 16.549 9.70671C16.7899 9.80594 17.8539 9.76816 18.3515 9.84363L20.9361 10.1536C22.7196 10.3431 24.6027 10.3571 26.3916 10.191L30.8401 9.7054C30.9246 9.69377 31.0483 9.70165 31.1242 9.66523L31.143 8.92666L31.1063 8.20699C30.2985 8.85663 29.456 9.04976 28.4648 9.21546L26.9824 9.43774L23.6563 9.54869C21.5795 9.54884 18.7113 9.46207 16.8976 8.30365C16.8215 8.25504 16.6177 8.08155 16.5368 8.07448ZM31.134 10.8401C31.0235 10.8518 30.9098 10.8575 30.8029 10.889C30.8434 11.2714 31.0333 11.7386 31.2334 12.074L31.3891 12.2923C31.2486 11.77 31.2701 11.2593 31.1683 10.8547L31.134 10.8401ZM16.4888 10.8664L16.4392 11.688C16.4101 12.0451 16.3651 12.3917 16.3893 12.7515C16.4814 12.5967 16.5461 12.4331 16.6148 12.2672C16.7936 11.8498 17.0068 11.4064 17.0901 10.9581L16.4888 10.8664ZM18.2701 11.0412C17.875 12.4942 17.5113 13.6704 16.0811 14.5182C15.8129 14.6773 15.9216 14.6839 15.9051 15.0017L15.8362 15.7323C15.8026 16.397 15.7591 17.0243 15.7151 17.6858L15.6213 19.1738C15.6132 19.3409 15.5852 19.5019 15.571 19.668L15.4341 21.9699L14.7185 30.7115C14.678 31.2431 14.6412 31.7703 14.5935 32.3015L14.3035 35.8522C14.2498 36.3998 14.1724 36.9506 14.149 37.5011C15.3948 38.2795 17.7389 38.7433 19.1634 38.9306L23.0254 23.3987C23.2577 22.4477 23.4417 21.5201 23.3538 20.5344C23.3181 20.1341 23.1375 19.5457 23.552 19.2833C23.9554 19.028 24.2844 19.3384 24.4101 19.7364C24.4596 19.8932 24.4563 20.0822 24.4784 20.2457L24.6626 21.8389C24.7659 22.5891 24.9481 23.3362 25.1109 24.0757L27.947 35.4714L28.1601 36.2574C28.1963 36.3806 28.2145 36.5081 28.2578 36.6286L28.7241 38.3689C28.9052 38.9612 28.6947 38.8757 29.3696 38.8461C30.7806 38.7844 32.6328 38.1527 33.8497 37.4036L33.4925 33.8674L31.8122 14.8748C31.7885 14.6371 31.8197 14.6521 31.6507 14.4845L31.2401 14.0735C30.4107 13.2033 29.9064 12.2532 29.6862 11.0582C29.5452 11.0347 29.3296 11.0999 29.183 11.1187L24.9748 11.4407C23.7814 11.4836 22.5962 11.4868 21.4031 11.4093L20.9065 11.3533C20.6496 11.3339 20.3898 11.3426 20.1337 11.3152L18.2701 11.0412ZM34.0117 38.637C32.5877 39.4589 30.8622 39.927 29.2242 39.9945L29.361 40.6057L29.392 40.6565C30.6256 40.6877 32.0156 40.5171 33.1121 39.9154C33.6507 39.6198 34.1627 39.3333 34.0516 38.6414L34.0117 38.637ZM14.0434 38.6774L14.0389 39.1375C14.0361 39.5348 14.5545 39.7371 14.8927 39.9001C16.0263 40.4462 17.4163 40.7044 18.6679 40.6834C18.7015 40.6401 18.7128 40.6056 18.727 40.5529L18.8417 40.0349C17.1575 39.8331 15.5755 39.4198 14.0434 38.6774Z" fill="black"/>
</svg>
